<?xml version="1.0" encoding="UTF-8"?>
<svg version="1.1" xmlns="http://www.w3.org/2000/svg" width="411" height="161">
<path d="M0 0 C2.67910571 2.85195124 2.97692325 4.73230967 3.3125 8.625 C3 12 3 12 1 15 C0.34 15 -0.32 15 -1 15 C-0.73323796 16.98491642 -0.73323796 16.98491642 0 19 C2.92482599 19.974942 4.08106399 20.20101725 7 19.5625 C11.30451971 18.75540255 15.64116735 18.39779638 20 18 C19.67 20.97 19.34 23.94 19 27 C21.31 26.01 23.62 25.02 26 24 C25.484375 23.525625 24.96875 23.05125 24.4375 22.5625 C22.26513533 18.69002384 23.24666846 15.24770076 24 11 C25.216875 10.566875 26.43375 10.13375 27.6875 9.6875 C30.22420024 8.75175918 32.17221792 7.88518805 34.4375 6.375 C37.64527228 4.65375634 40.41654773 4.46471428 44.01171875 4.2109375 C46.07253947 4.10971249 46.07253947 4.10971249 48 3 C48.2165625 3.9590625 48.2165625 3.9590625 48.4375 4.9375 C48.81007181 6.97545146 48.81007181 6.97545146 50 8 C50.04063832 9.66617115 50.042721 11.33388095 50 13 C50.763125 13.061875 51.52625 13.12375 52.3125 13.1875 C55 14 55 14 56.8125 16.25 C58.09352267 19.21657881 58.66760904 20.82885708 58 24 C55.5 25.8125 55.5 25.8125 53 27 C53.66 27 54.32 27 55 27 C55.04125 27.5775 55.0825 28.155 55.125 28.75 C56.44065958 32.13312465 58.96552364 33.19222685 62 35 C61.125 39.875 61.125 39.875 60 41 C60.66 41.33 61.32 41.66 62 42 C62 43.32 62 44.64 62 46 C62.99 46 63.98 46 65 46 C66.2077558 49.62326739 65.54311128 50.64146369 64 54 C63.401875 53.814375 62.80375 53.62875 62.1875 53.4375 C59.83591238 52.77906313 59.83591238 52.77906313 57 54 C57.09539062 54.65226562 57.19078125 55.30453125 57.2890625 55.9765625 C58.47086775 65.29358525 58.47086775 65.29358525 56 70 C53.41024759 71.8378888 52.21518097 72 49 72 C49.37125 72.556875 49.7425 73.11375 50.125 73.6875 C51 76 51 76 50.3125 78.6875 C49 81 49 81 46 82 C45.34 81.01 44.68 80.02 44 79 C42.68 79.33 41.36 79.66 40 80 C40.33 81.32 40.66 82.64 41 84 C35.25 87 35.25 87 33 87 C33 87.66 33 88.32 33 89 C29.38026598 90.31626692 26.90432869 91 23 91 C21.18757677 86.9811485 19.66498383 83.38889325 19 79 C18.01 79 17.02 79 16 79 C15.67 83.62 15.34 88.24 15 93 C12.36 93.33 9.72 93.66 7 94 C7.33 94.99 7.66 95.98 8 97 C5.36 97 2.72 97 0 97 C0.495 95.02 0.495 95.02 1 93 C-1.97 93 -4.94 93 -8 93 C-8.02690844 90.37493198 -8.04679404 87.75013827 -8.0625 85.125 C-8.07087891 84.37863281 -8.07925781 83.63226563 -8.08789062 82.86328125 C-8.11328125 77.2265625 -8.11328125 77.2265625 -7 75 C-9.97 74.34 -12.94 73.68 -16 73 C-16.67155349 70.73050898 -17.3373963 68.4596039 -18 66.1875 C-18.37125 64.92292969 -18.7425 63.65835938 -19.125 62.35546875 C-20 59 -20 59 -20 56 C-20.78375 55.9175 -21.5675 55.835 -22.375 55.75 C-25 55 -25 55 -26.3125 53.3125 C-27.66164265 48.77447473 -27.06882213 44.54249404 -26 40 C-26.99 40.66 -27.98 41.32 -29 42 C-30.07278073 38.7816578 -29.96640442 37.0231135 -29.625 33.6875 C-29.52574219 32.71554688 -29.42648438 31.74359375 -29.32421875 30.7421875 C-28.97731583 27.80814115 -28.54926011 24.90323203 -28 22 C-28.99 21.34 -29.98 20.68 -31 20 C-31.28875 20.639375 -31.5775 21.27875 -31.875 21.9375 C-33 24 -33 24 -35 25 C-35 23.02 -35 21.04 -35 19 C-36.65 19.33 -38.3 19.66 -40 20 C-39.56980498 23.44156018 -38.53939839 25.9473222 -36.875 28.9375 C-34.90936702 32.71974686 -34.81814658 34.81805712 -36 39 C-36.6862407 42.73619935 -37.1117902 46.19913329 -37 50 C-33.6136749 51.50930183 -33.6136749 51.50930183 -30 52 C-30 56.95 -30 61.9 -30 67 C-35.11995284 68.50067583 -38.71218589 69.41868183 -44 68 C-45.78569161 66.21430839 -45.21468103 63.66346262 -45.25 61.25 C-45.28867187 59.67992188 -45.28867187 59.67992188 -45.328125 58.078125 C-44.96287908 54.65177044 -43.96436627 52.79146786 -42 50 C-43.485 50.495 -43.485 50.495 -45 51 C-45.52992692 49.54494642 -46.0486789 48.08581873 -46.5625 46.625 C-46.85253906 45.81289062 -47.14257812 45.00078125 -47.44140625 44.1640625 C-48 42 -48 42 -47 40 C-46.34 40 -45.68 40 -45 40 C-44.566875 38.6078125 -44.566875 38.6078125 -44.125 37.1875 C-43 34 -43 34 -41 31 C-41.7425 31.12375 -42.485 31.2475 -43.25 31.375 C-46 31 -46 31 -48.3125 28 C-48.869375 27.01 -49.42625 26.02 -50 25 C-49.67 24.34 -49.34 23.68 -49 23 C-48.34 23 -47.68 23 -47 23 C-47.33 21.68 -47.66 20.36 -48 19 C-44.49223216 17.39644899 -41.85645121 16.77963136 -38 17 C-38.99 16.34 -39.98 15.68 -41 15 C-39.68 14.01 -38.36 13.02 -37 12 C-37.66 10.68 -38.32 9.36 -39 8 C-37.68 7.67 -36.36 7.34 -35 7 C-35 5.68 -35 4.36 -35 3 C-34.2575 3.37125 -33.515 3.7425 -32.75 4.125 C-30.05716353 5.29515863 -30.05716353 5.29515863 -27.6875 4.125 C-27.130625 3.75375 -26.57375 3.3825 -26 3 C-25.67 3.99 -25.34 4.98 -25 6 C-23.68 5.67 -22.36 5.34 -21 5 C-21.33 6.32 -21.66 7.64 -22 9 C-20.68 9 -19.36 9 -18 9 C-18.66 10.32 -19.32 11.64 -20 13 C-20.66 13 -21.32 13 -22 13 C-22 13.66 -22 14.32 -22 15 C-21.34 15 -20.68 15 -20 15 C-19.67 15.99 -19.34 16.98 -19 18 C-20.98 18 -22.96 18 -25 18 C-24.67 18.99 -24.34 19.98 -24 21 C-23.67 20.34 -23.34 19.68 -23 19 C-21.02111039 18.27306096 -19.02045442 17.60183749 -17 17 C-17.04640625 16.32453125 -17.0928125 15.6490625 -17.140625 14.953125 C-17.4359673 7.65395095 -17.4359673 7.65395095 -15.375 4.5625 C-10.21956475 1.17076628 -6.33157204 -0.95570899 0 0 Z M37 10 C35.25151043 13.49697915 36.27127349 17.28961387 37 21 C37.90928072 23.66971463 38.93522196 26.27923755 39.9609375 28.90625 C41.15137834 32.45072046 41.83068936 35.947469 42.5 39.625 C43.47196931 44.86194941 44.75353803 49.30090012 47.0703125 54.078125 C48.52788379 57.09125557 49.42590194 59.682989 50 63 C48.625 65.9375 48.625 65.9375 47 68 C49.86724686 67.42655063 50.8614515 67.1385485 53 65 C53.66065191 60.05482616 53.30905137 55.47378703 51 51 C52.32 49.68 53.64 48.36 55 47 C52.03 46.67 49.06 46.34 46 46 C46 45.01 46 44.02 46 43 C47.485 42.505 47.485 42.505 49 42 C49 39.03 49 36.06 49 33 C49.66 32.67 50.32 32.34 51 32 C51 30.68 51 29.36 51 28 C48.69 28.33 46.38 28.66 44 29 C41.59185923 25.48812804 40.63370592 23.27343092 41 19 C40.34 19 39.68 19 39 19 C39.875 12.25 39.875 12.25 41 10 C39.68 10 38.36 10 37 10 Z M43 14 C42.34 14.66 41.68 15.32 41 16 C41.99 16 42.98 16 44 16 C43.67 15.34 43.34 14.68 43 14 Z M-8.875 16.25 C-9.75929688 16.29640625 -10.64359375 16.3428125 -11.5546875 16.390625 C-14.63307309 17.15776262 -15.39356244 18.34033516 -17 21 C-16.34 22.32 -15.68 23.64 -15 25 C-14.34 25 -13.68 25 -13 25 C-11.39883832 29.80348505 -11.3882954 35.1648862 -13 40 C-10.69 40.33 -8.38 40.66 -6 41 C-4.52952664 37.08936776 -4.52952664 37.08936776 -4 33 C-5.32 33 -6.64 33 -8 33 C-7 30 -7 30 -4 28 C-3.41518879 25.11404054 -3.41518879 25.11404054 -3.3125 21.875 C-3.24675781 20.77929688 -3.18101563 19.68359375 -3.11328125 18.5546875 C-3.07589844 17.71164063 -3.03851563 16.86859375 -3 16 C-4.96509928 16 -6.91407098 16.12495525 -8.875 16.25 Z M-2 27 C-1.67 27.66 -1.34 28.32 -1 29 C-0.34 29 0.32 29 1 29 C1 28.34 1 27.68 1 27 C0.01 27 -0.98 27 -2 27 Z M12 28 C13.32 28.33 14.64 28.66 16 29 C16 30.98 16 32.96 16 35 C18.17605071 34.17871814 18.17605071 34.17871814 18.875 32 C20 30 20 30 22.125 29.25 C22.74375 29.1675 23.3625 29.085 24 29 C19.95858806 28.36605303 16.0934693 27.87595548 12 28 Z M-1 31 C-2.23396041 32.7142289 -2.23396041 32.7142289 -3 35 C-2.21297649 37.7193293 -2.21297649 37.7193293 -1 40 C-3.77280706 43.08089673 -6.06326356 44.68775452 -10 46 C-8.68 48.97 -7.36 51.94 -6 55 C-5.34 55 -4.68 55 -4 55 C-4.32484375 55.84884766 -4.32484375 55.84884766 -4.65625 56.71484375 C-5.11986714 59.79684406 -4.15088942 60.96761796 -2.5 63.5625 C-1.03125 65.87890625 -1.03125 65.87890625 0 68 C-0.33 68.99 -0.66 69.98 -1 71 C3.61507774 72.04214691 3.61507774 72.04214691 8 71 C8 70.01 8 69.02 8 68 C10.475 67.505 10.475 67.505 13 67 C13 66.34 13 65.68 13 65 C12.34 65 11.68 65 11 65 C10.67 64.34 10.34 63.68 10 63 C8.515 63.495 8.515 63.495 7 64 C7 62.68 7 61.36 7 60 C5.02 60.66 3.04 61.32 1 62 C1.33 60.68 1.66 59.36 2 58 C1.34 58 0.68 58 0 58 C0.58803797 54.97580475 1.22678118 51.98241547 2 49 C1.13375 49.2165625 1.13375 49.2165625 0.25 49.4375 C-1.83333333 49.95833333 -3.91666667 50.47916667 -6 51 C-4.72657337 47.17972012 -3.05843596 46.97531873 0.34375 45.18359375 C2.94222684 43.32666336 3.38171315 41.02273573 4 38 C3.01 38 2.02 38 1 38 C0.67 35.69 0.34 33.38 0 31 C-0.33 31 -0.66 31 -1 31 Z M4 32 C5 36 5 36 5 36 Z M-17 33 C-17 33.99 -17 34.98 -17 36 C-16.34 35.67 -15.68 35.34 -15 35 C-15 34.34 -15 33.68 -15 33 C-15.66 33 -16.32 33 -17 33 Z M51 34 C51 34.66 51 35.32 51 36 C52.65 35.67 54.3 35.34 56 35 C56 34.67 56 34.34 56 34 C54.35 34 52.7 34 51 34 Z M25.1875 35.5 C22.73497384 36.06057741 20.50762865 36.06965635 18 36 C18 37.65 18 39.3 18 41 C20.31 41 22.62 41 25 41 C25 41.99 25 42.98 25 44 C24.01 44.495 24.01 44.495 23 45 C23.66 45 24.32 45 25 45 C25.25 52.625 25.25 52.625 23 56 C23 56.99 23 57.98 23 59 C22.34 59.33 21.68 59.66 21 60 C21 59.34 21 58.68 21 58 C19.02 58 17.04 58 15 58 C15.33 57.01 15.66 56.02 16 55 C15.02103997 51.46068295 13.7397511 48.23096633 12 45 C11.01 45.99 10.02 46.98 9 48 C8.01 47.34 7.02 46.68 6 46 C5.67 47.32 5.34 48.64 5 50 C5.99 50.495 5.99 50.495 7 51 C7.66 50.67 8.32 50.34 9 50 C9.33 52.31 9.66 54.62 10 57 C10.99 57.33 11.98 57.66 13 58 C13.33 58.99 13.66 59.98 14 61 C15.98 61.33 17.96 61.66 20 62 C20 62.99 20 63.98 20 65 C22.05795482 65.41882243 24.12171348 65.80919281 26.1875 66.1875 C27.33605469 66.40792969 28.48460938 66.62835938 29.66796875 66.85546875 C34.27850764 67.05545695 36.42969967 65.35370718 39.8125 62.4375 C41.21229382 61.05377179 41.21229382 61.05377179 41 59 C41.66 59 42.32 59 43 59 C43.66 57.02 44.32 55.04 45 53 C43.68 53.33 42.36 53.66 41 54 C40.34 52.02 39.68 50.04 39 48 C38.67 48 38.34 48 38 48 C37.87530901 53.57830016 37.87530901 53.57830016 39 59 C36.03 59.495 36.03 59.495 33 60 C32.95101562 59.28972656 32.90203125 58.57945313 32.8515625 57.84765625 C32.77679688 56.92855469 32.70203125 56.00945312 32.625 55.0625 C32.55539063 54.14597656 32.48578125 53.22945312 32.4140625 52.28515625 C32.27742188 51.53105469 32.14078125 50.77695313 32 50 C31.34 49.67 30.68 49.34 30 49 C29.5859375 45.83984375 29.5859375 45.83984375 29.375 41.9375 C29.30023438 40.64714844 29.22546875 39.35679688 29.1484375 38.02734375 C29.09945312 37.02832031 29.05046875 36.02929688 29 35 C27.00796402 34.911357 27.00796402 34.911357 25.1875 35.5 Z M58 37 C59 39 59 39 59 39 Z M14 39 C15 41 15 41 15 41 Z M16 42 C16 42.66 16 43.32 16 44 C16.99 43.67 17.98 43.34 19 43 C18.01 42.67 17.02 42.34 16 42 Z M38 72 C37.67 73.32 37.34 74.64 37 76 C37.99 76 38.98 76 40 76 C40 75.34 40 74.68 40 74 C40.66 73.67 41.32 73.34 42 73 C40.68 72.67 39.36 72.34 38 72 Z M2 73 C4.98646769 74.99097846 7.59687262 75.94124926 11 77 C11 75.68 11 74.36 11 73 C8.03 73 5.06 73 2 73 Z M24 74 C24.33 74.66 24.66 75.32 25 76 C25.33 75.34 25.66 74.68 26 74 C25.34 74 24.68 74 24 74 Z M20 76 C20 76.66 20 77.32 20 78 C20.66 78 21.32 78 22 78 C22 77.34 22 76.68 22 76 C21.34 76 20.68 76 20 76 Z " fill="#6C3342" transform="translate(93,36)"/>
<path d="M0 0 C2.3359375 1.8203125 2.3359375 1.8203125 4 4 C4.19923179 7.58617214 3.87644362 9.84175002 1.67578125 12.75 C-2.05915105 16.37175253 -5.48030168 17.90962837 -10.66796875 18.18359375 C-13.97954822 17.92288314 -16.82667286 16.95573885 -19.9140625 15.76953125 C-22.56465839 14.79168969 -25.20464829 14.35837842 -28 14 C-30.25885324 17.25397508 -30.25885324 17.25397508 -31 21 C-29.75283203 21.16435547 -29.75283203 21.16435547 -28.48046875 21.33203125 C-27.39378906 21.49058594 -26.30710938 21.64914063 -25.1875 21.8125 C-24.10855469 21.96332031 -23.02960938 22.11414063 -21.91796875 22.26953125 C-18.91258283 23.02188355 -17.78713394 23.52126971 -16 26 C-15.5625 28.5 -15.5625 28.5 -16 31 C-17.77063918 33.23254506 -19.2377638 33.86609364 -22.0234375 34.35546875 C-28.26870634 34.7497946 -31.29691298 33.00262725 -36 29 C-41.22299756 33.17079174 -45.33914241 36.7913323 -48 43 C-48.42912017 47.21968166 -48.46195515 50.44384256 -46 54 C-41.96127159 56.0193642 -37.04416738 55.63652899 -32.8046875 54.31640625 C-29.17354625 52.65270845 -26.67656039 50.88547308 -24.1875 47.75 C-23.1046875 46.38875 -23.1046875 46.38875 -22 45 C-21.01 45 -20.02 45 -19 45 C-18.34 43.35 -17.68 41.7 -17 40 C-16.01 40 -15.02 40 -14 40 C-14 40.99 -14 41.98 -14 43 C-13.40832031 42.6390625 -12.81664062 42.278125 -12.20703125 41.90625 C-11.41683594 41.4421875 -10.62664062 40.978125 -9.8125 40.5 C-9.03519531 40.0359375 -8.25789063 39.571875 -7.45703125 39.09375 C-4.75896614 37.89270353 -2.9193018 37.79258957 0 38 C1.1484375 39.578125 1.1484375 39.578125 2 42 C1.1015625 45.234375 1.1015625 45.234375 -0.375 48.75 C-0.85710937 49.92046875 -1.33921875 51.0909375 -1.8359375 52.296875 C-2.22007812 53.18890625 -2.60421875 54.0809375 -3 55 C3.1166088 52.06402777 6.27592828 48.61493167 10 43 C10.66 42.01 11.32 41.02 12 40 C13.485 40.495 13.485 40.495 15 41 C14.7834375 41.60328125 14.566875 42.2065625 14.34375 42.828125 C14.0653125 43.62734375 13.786875 44.4265625 13.5 45.25 C13.2215625 46.03890625 12.943125 46.8278125 12.65625 47.640625 C11.82135139 50.23412738 11.82135139 50.23412738 12 54 C17.44296583 50.49424738 20.75372993 47.09335707 24.25 41.6875 C25.76221029 39.36583972 27.29931226 37.1972172 29 35 C29.99 35 30.98 35 32 35 C31 40 30 45 29 50 C33.03395088 47.86313441 35.46902363 45.54109343 38.25 41.9375 C38.93578125 41.05964844 39.6215625 40.18179688 40.328125 39.27734375 C42.00997048 37.1207335 42.00997048 37.1207335 43 35 C43.99 35 44.98 35 46 35 C45.44641848 38.8887393 44.36737379 41.27604719 42.0625 44.4375 C39.67262802 47.8647025 38.04905761 50.90867534 37 55 C37.33 54.67 37.66 54.34 38 54 C38.61875 53.773125 39.2375 53.54625 39.875 53.3125 C42.28944632 52.078569 42.28944632 52.078569 43.5 49 C45 46 45 46 46.80078125 45.1875 C49.94375282 43.490407 51.65173497 40.84403418 53.6875 38 C54.09033203 37.4534375 54.49316406 36.906875 54.90820312 36.34375 C56.41677657 34.28178027 57.85538655 32.2892269 59 30 C60.32 30 61.64 30 63 30 C62.86722656 30.68964844 62.73445313 31.37929687 62.59765625 32.08984375 C61.47696987 38.05320412 60.59395227 43.96148529 60 50 C66.39375008 46.25731702 70.90566395 41.14150408 75 35 C75.99 35 76.98 35 78 35 C77.70098505 39.78423914 75.27954549 42.45315561 72.43359375 46.0703125 C70.35626359 48.86650078 69 51.49060261 69 55 C74.64181256 51.55085695 78.31071203 47.36432229 82.53515625 42.265625 C85 40 85 40 87.80859375 39.671875 C88.53175781 39.78015625 89.25492188 39.8884375 90 40 C90.3403125 38.8553125 90.3403125 38.8553125 90.6875 37.6875 C92.29979441 34.38613526 93.614057 33.37050074 97 32 C99.3125 32.8125 99.3125 32.8125 101 34 C100.56826496 40.15222436 99.34594658 43.81917949 96 49 C101.29500913 47.63842622 103.23745533 44.39656045 106 40 C106.86625 40.226875 107.7325 40.45375 108.625 40.6875 C112.73234479 41.0678097 114.41806129 39.90528655 118 38 C120.8125 37.75 120.8125 37.75 123 38 C124 39 124 39 124.1875 41.8125 C124.00025783 44.99561684 123.4517237 46.26734361 122 49 C121.61709538 50.99110401 121.27395385 52.99100513 121 55 C124.63567022 52.55291427 127.50533366 50.61833292 130.25 47.1875 C130.8275 46.465625 131.405 45.74375 132 45 C132.99 45 133.98 45 135 45 C134.50945781 49.25136564 131.98393323 52.13083343 129 55 C125.85034323 57.40898406 123.21916009 59.07951044 119.125 58.8125 C117 58 117 58 116 57 C116.48744001 52.12559993 117.57319168 47.66090719 119 43 C114.80165873 44.39694361 112.16409471 46.37282069 108.9375 49.375 C108.10089844 50.14585938 107.26429688 50.91671875 106.40234375 51.7109375 C104.84388034 53.19591239 103.3268313 54.7260869 101.86328125 56.3046875 C101.24839844 56.86414063 100.63351562 57.42359375 100 58 C97.25 57.75 97.25 57.75 95 57 C95.33 56.34 95.66 55.68 96 55 C92.20435487 55.37956451 89.30744164 55.84627918 85.875 57.5625 C82.86762446 59.06618777 81.29974278 59.44591119 78 59 C77.01 58.34 76.02 57.68 75 57 C74.443125 57.33 73.88625 57.66 73.3125 58 C70.56205024 59.18938368 68.96025725 59.53132822 66 59 C64.1875 56.5 64.1875 56.5 63 54 C59.51667672 55.46299578 56.22146445 56.87344888 52.9375 58.75 C49.42757074 60.24358692 47.63320465 59.990874 44 59 C43.34 58.67 42.68 58.34 42 58 C40.00978479 58.09723451 40.00978479 58.09723451 37.875 58.4375 C36.59625 58.623125 35.3175 58.80875 34 59 C32.9375 57.125 32.9375 57.125 32 55 C32.495 54.01 32.495 54.01 33 53 C32.05125 53.061875 31.1025 53.12375 30.125 53.1875 C29.09375 53.125625 28.0625 53.06375 27 53 C26.34 52.01 25.68 51.02 25 50 C21.84355126 50.79709487 21.84355126 50.79709487 19.6875 53.375 C16.89307287 56.10444045 14.63737178 57.606964 11 59 C7.92783056 58.74398588 7.21436106 58.21436106 5 56 C4.113125 56.515625 3.22625 57.03125 2.3125 57.5625 C-1.20023331 59.0868937 -2.44706507 59.14947895 -6 58 C-7.35606055 53.55829268 -6.59120114 51.2943828 -4.5625 47.1875 C-4.08941406 46.21167969 -3.61632812 45.23585937 -3.12890625 44.23046875 C-2.75636719 43.49441406 -2.38382813 42.75835937 -2 42 C-8.46733472 44.61180825 -12.83339157 48.32417698 -17.69824219 53.20239258 C-21.77799433 57.18387826 -24.43895585 58 -30 58 C-31.0828125 58.495 -31.0828125 58.495 -32.1875 59 C-37.13364625 60.75862978 -41.33988234 60.51080543 -46.25 59 C-50.03723011 56.24565083 -51.70535855 53.48024404 -53 49 C-53.84758229 42.97886344 -51.6632214 39.04875472 -48.25 34.1875 C-45.50183243 30.55299595 -42.72381292 27.64489362 -39 25 C-38.34 25 -37.68 25 -37 25 C-36.81824219 24.32453125 -36.63648438 23.6490625 -36.44921875 22.953125 C-36.19785156 22.06109375 -35.94648438 21.1690625 -35.6875 20.25 C-35.44386719 19.36828125 -35.20023438 18.4865625 -34.94921875 17.578125 C-33.9777511 14.9395709 -32.70331674 13.2085378 -31 11 C-31.10417827 8.99660454 -31.10417827 8.99660454 -32 7 C-32.350625 6.0925 -32.70125 5.185 -33.0625 4.25 C-33.5265625 3.13625 -33.5265625 3.13625 -34 2 C-33.01 2 -32.02 2 -31 2 C-30.319375 2.7734375 -30.319375 2.7734375 -29.625 3.5625 C-29.08875 4.036875 -28.5525 4.51125 -28 5 C-24.36702768 4.55286495 -21.29235063 3.34926972 -17.9375 1.9375 C-12.09525619 -0.22365523 -6.17602166 -1.24805192 0 0 Z M-22 8 C-21.02703346 10.65354511 -20.34207577 11.79877896 -17.875 13.25 C-12.38219246 14.68290631 -8.60463751 14.78773114 -3.5625 12.3125 C-0.77932011 9.80084985 -0.20429836 8.6773705 0 5 C-7.2406048 0.17293013 -14.99922802 4.49961401 -22 8 Z M-30 26 C-29.67 27.32 -29.34 28.64 -29 30 C-24.46859347 30.93380961 -24.46859347 30.93380961 -20 30 C-20.33 28.68 -20.66 27.36 -21 26 C-25.61507774 24.95785309 -25.61507774 24.95785309 -30 26 Z M94 39 C92.5393715 41.64738916 92 42.89448334 92 46 C92.66 46 93.32 46 94 46 C95.4606285 43.35261084 96 42.10551666 96 39 C95.34 39 94.68 39 94 39 Z M55 42 C51.69709808 45.45201833 51.69709808 45.45201833 51 50 C53.475 50.495 53.475 50.495 56 51 C56.33 48.03 56.66 45.06 57 42 C56.34 42 55.68 42 55 42 Z M85.625 44.3203125 C82.20399106 48.11960609 80.2591878 50.68665007 80 56 C80.66 56 81.32 56 82 56 C82 55.34 82 54.68 82 54 C82.78375 53.87625 83.5675 53.7525 84.375 53.625 C87.14057822 53.20882007 87.14057822 53.20882007 89 51 C89.02375926 49.0068433 89.02375926 49.0068433 88.625 46.875 C88.41875 45.59625 88.2125 44.3175 88 43 C86.80250657 42.88456381 86.80250657 42.88456381 85.625 44.3203125 Z M48 51 C47.01 52.485 47.01 52.485 46 54 C47.12534105 55.35618499 47.12534105 55.35618499 50.0625 55.0625 C51.031875 55.041875 52.00125 55.02125 53 55 C51.35 53.68 49.7 52.36 48 51 Z " fill="#F8FAFD" transform="translate(215,33)"/>
<path d="M0 0 C2.63087738 2.80061141 2.97028972 4.75807344 3.4375 8.5625 C3 12 3 12 1.38671875 14.15625 C-2.41640412 17.09417798 -6.43224525 16.84234766 -11.1015625 17.21484375 C-12.05804688 17.47394531 -13.01453125 17.73304687 -14 18 C-15.48145693 20.46040195 -15.48145693 20.46040195 -16 23 C-15.175 23.66 -14.35 24.32 -13.5 25 C-10.62323541 28.45211751 -10.62323541 28.45211751 -10.5625 32.0625 C-11 36 -11 36 -13 40 C-9.37 40 -5.74 40 -2 40 C-2.33 41.32 -2.66 42.64 -3 44 C-6.0625 45.25 -6.0625 45.25 -9 46 C-8.5504955 47.31554985 -8.09010284 48.62738358 -7.625 49.9375 C-7.24214844 51.03384766 -7.24214844 51.03384766 -6.8515625 52.15234375 C-6.14728587 54.18682116 -6.14728587 54.18682116 -4 55 C-3.4375 57.1875 -3.4375 57.1875 -3 60 C-2.814375 61.093125 -2.62875 62.18625 -2.4375 63.3125 C-2.293125 64.199375 -2.14875 65.08625 -2 66 C-2.9075 66.4125 -3.815 66.825 -4.75 67.25 C-8.01886824 68.79970751 -8.01886824 68.79970751 -10.125 71.1875 C-12 73 -12 73 -16 73 C-16.67155349 70.73050898 -17.3373963 68.4596039 -18 66.1875 C-18.37125 64.92292969 -18.7425 63.65835938 -19.125 62.35546875 C-20 59 -20 59 -20 56 C-20.78375 55.9175 -21.5675 55.835 -22.375 55.75 C-25 55 -25 55 -26.3125 53.3125 C-27.66164265 48.77447473 -27.06882213 44.54249404 -26 40 C-26.99 40.66 -27.98 41.32 -29 42 C-30.07278073 38.7816578 -29.96640442 37.0231135 -29.625 33.6875 C-29.52574219 32.71554688 -29.42648438 31.74359375 -29.32421875 30.7421875 C-28.97731583 27.80814115 -28.54926011 24.90323203 -28 22 C-28.99 21.34 -29.98 20.68 -31 20 C-31.28875 20.639375 -31.5775 21.27875 -31.875 21.9375 C-33 24 -33 24 -35 25 C-35 23.02 -35 21.04 -35 19 C-36.65 19.33 -38.3 19.66 -40 20 C-39.56980498 23.44156018 -38.53939839 25.9473222 -36.875 28.9375 C-34.90936702 32.71974686 -34.81814658 34.81805712 -36 39 C-36.6862407 42.73619935 -37.1117902 46.19913329 -37 50 C-33.6136749 51.50930183 -33.6136749 51.50930183 -30 52 C-30 56.95 -30 61.9 -30 67 C-35.11995284 68.50067583 -38.71218589 69.41868183 -44 68 C-45.78569161 66.21430839 -45.21468103 63.66346262 -45.25 61.25 C-45.28867187 59.67992188 -45.28867187 59.67992188 -45.328125 58.078125 C-44.96287908 54.65177044 -43.96436627 52.79146786 -42 50 C-43.485 50.495 -43.485 50.495 -45 51 C-45.52992692 49.54494642 -46.0486789 48.08581873 -46.5625 46.625 C-46.85253906 45.81289062 -47.14257812 45.00078125 -47.44140625 44.1640625 C-48 42 -48 42 -47 40 C-46.34 40 -45.68 40 -45 40 C-44.566875 38.6078125 -44.566875 38.6078125 -44.125 37.1875 C-43 34 -43 34 -41 31 C-41.7425 31.12375 -42.485 31.2475 -43.25 31.375 C-46 31 -46 31 -48.3125 28 C-48.869375 27.01 -49.42625 26.02 -50 25 C-49.67 24.34 -49.34 23.68 -49 23 C-48.34 23 -47.68 23 -47 23 C-47.33 21.68 -47.66 20.36 -48 19 C-44.49223216 17.39644899 -41.85645121 16.77963136 -38 17 C-38.99 16.34 -39.98 15.68 -41 15 C-39.68 14.01 -38.36 13.02 -37 12 C-37.66 10.68 -38.32 9.36 -39 8 C-37.68 7.67 -36.36 7.34 -35 7 C-35 5.68 -35 4.36 -35 3 C-34.2575 3.37125 -33.515 3.7425 -32.75 4.125 C-30.05716353 5.29515863 -30.05716353 5.29515863 -27.6875 4.125 C-27.130625 3.75375 -26.57375 3.3825 -26 3 C-25.67 3.99 -25.34 4.98 -25 6 C-23.68 5.67 -22.36 5.34 -21 5 C-21.33 6.32 -21.66 7.64 -22 9 C-20.68 9 -19.36 9 -18 9 C-18.66 10.32 -19.32 11.64 -20 13 C-20.66 13 -21.32 13 -22 13 C-22 13.66 -22 14.32 -22 15 C-21.34 15 -20.68 15 -20 15 C-19.67 15.99 -19.34 16.98 -19 18 C-20.98 18 -22.96 18 -25 18 C-24.67 18.99 -24.34 19.98 -24 21 C-23.67 20.34 -23.34 19.68 -23 19 C-21.02111039 18.27306096 -19.02045442 17.60183749 -17 17 C-17.04640625 16.32453125 -17.0928125 15.6490625 -17.140625 14.953125 C-17.4359673 7.65395095 -17.4359673 7.65395095 -15.375 4.5625 C-10.21956475 1.17076628 -6.33157204 -0.95570899 0 0 Z M-17 33 C-17 33.99 -17 34.98 -17 36 C-16.34 35.67 -15.68 35.34 -15 35 C-15 34.34 -15 33.68 -15 33 C-15.66 33 -16.32 33 -17 33 Z " fill="#1E96CD" transform="translate(93,36)"/>
<path d="M0 0 C0.309375 0.639375 0.61875 1.27875 0.9375 1.9375 C1.8345163 3.93610821 1.8345163 3.93610821 3 5 C3.04063832 6.66617115 3.042721 8.33388095 3 10 C3.763125 10.061875 4.52625 10.12375 5.3125 10.1875 C8 11 8 11 9.8125 13.25 C11.05844379 16.13534352 11.09852758 17.90934524 11 21 C9.25877451 22.03572896 7.50663405 23.0531252 5.75 24.0625 C4.28820312 24.91521484 4.28820312 24.91521484 2.796875 25.78515625 C0 27 0 27 -2.25390625 26.82421875 C-4.97905342 25.53785174 -5.72646904 23.66835058 -7 21 C-8.15594782 17.00672571 -8.15925114 13.14052958 -8 9 C-7.67 8.67 -7.34 8.34 -7 8 C-7.99 8.33 -8.98 8.66 -10 9 C-9.66506116 14.10781724 -8.99919755 18.35366502 -7.125 23.125 C-3.84399353 31.61490359 -1.72042596 40.87190756 -2 50 C-3.32 50.66 -4.64 51.32 -6 52 C-6.66 50.35 -7.32 48.7 -8 47 C-8 49.97 -8 52.94 -8 56 C-9.98 56.66 -11.96 57.32 -14 58 C-15 57 -15 57 -15.09765625 54.71484375 C-15.08605469 53.79832031 -15.07445313 52.88179687 -15.0625 51.9375 C-15.05347656 51.01839844 -15.04445313 50.09929687 -15.03515625 49.15234375 C-15.02355469 48.44207031 -15.01195313 47.73179688 -15 47 C-16.485 46.505 -16.485 46.505 -18 46 C-18.19456705 44.04235617 -18.38044247 42.08384679 -18.5625 40.125 C-18.66691406 39.03445312 -18.77132812 37.94390625 -18.87890625 36.8203125 C-19 34 -19 34 -18 32 C-18.99 32.66 -19.98 33.32 -21 34 C-24.6875 33.625 -24.6875 33.625 -28 33 C-28.33 31.68 -28.66 30.36 -29 29 C-28.34 29 -27.68 29 -27 29 C-27 28.34 -27 27.68 -27 27 C-26.67 26.67 -26.34 26.34 -26 26 C-26.71027344 25.95101562 -27.42054687 25.90203125 -28.15234375 25.8515625 C-29.07144531 25.77679688 -29.99054688 25.70203125 -30.9375 25.625 C-31.85402344 25.55539063 -32.77054687 25.48578125 -33.71484375 25.4140625 C-34.46894531 25.27742188 -35.22304687 25.14078125 -36 25 C-36.33 24.34 -36.66 23.68 -37 23 C-34.03 22.34 -31.06 21.68 -28 21 C-28 21.99 -28 22.98 -28 24 C-25.69 23.01 -23.38 22.02 -21 21 C-21.515625 20.525625 -22.03125 20.05125 -22.5625 19.5625 C-24.73486467 15.69002384 -23.75333154 12.24770076 -23 8 C-21.783125 7.566875 -20.56625 7.13375 -19.3125 6.6875 C-16.77579976 5.75175918 -14.82778208 4.88518805 -12.5625 3.375 C-9.3299974 1.64048641 -6.5138139 1.4628811 -2.890625 1.2109375 C-0.98994596 1.19805958 -0.98994596 1.19805958 0 0 Z M-4 11 C-4.66 11.66 -5.32 12.32 -6 13 C-5.01 13 -4.02 13 -3 13 C-3.33 12.34 -3.66 11.68 -4 11 Z " fill="#F29334" transform="translate(140,39)"/>
<path d="M0 0 C1.11375 0.556875 1.11375 0.556875 2.25 1.125 C4.94283647 2.29515863 4.94283647 2.29515863 7.3125 1.125 C7.869375 0.75375 8.42625 0.3825 9 0 C9.33 0.99 9.66 1.98 10 3 C11.32 2.67 12.64 2.34 14 2 C13.67 3.32 13.34 4.64 13 6 C14.32 6 15.64 6 17 6 C16.34 7.32 15.68 8.64 15 10 C14.34 10 13.68 10 13 10 C13 10.66 13 11.32 13 12 C13.66 12 14.32 12 15 12 C15.33 12.99 15.66 13.98 16 15 C14.02 15 12.04 15 10 15 C10 16.65 10 18.3 10 20 C8 19 6 18 4 17 C3.71125 17.639375 3.4225 18.27875 3.125 18.9375 C2 21 2 21 0 22 C0 20.02 0 18.04 0 16 C-1.65 16.33 -3.3 16.66 -5 17 C-4.56980498 20.44156018 -3.53939839 22.9473222 -1.875 25.9375 C0.09063298 29.71974686 0.18185342 31.81805712 -1 36 C-1.6862407 39.73619935 -2.1117902 43.19913329 -2 47 C1.3863251 48.50930183 1.3863251 48.50930183 5 49 C5 53.95 5 58.9 5 64 C-0.11995284 65.50067583 -3.71218589 66.41868183 -9 65 C-10.78569161 63.21430839 -10.21468103 60.66346262 -10.25 58.25 C-10.28867187 56.67992188 -10.28867187 56.67992188 -10.328125 55.078125 C-9.96287908 51.65177044 -8.96436627 49.79146786 -7 47 C-8.485 47.495 -8.485 47.495 -10 48 C-10.52992692 46.54494642 -11.0486789 45.08581873 -11.5625 43.625 C-11.85253906 42.81289062 -12.14257812 42.00078125 -12.44140625 41.1640625 C-13 39 -13 39 -12 37 C-11.34 37 -10.68 37 -10 37 C-9.566875 35.6078125 -9.566875 35.6078125 -9.125 34.1875 C-8 31 -8 31 -6 28 C-6.7425 28.12375 -7.485 28.2475 -8.25 28.375 C-11 28 -11 28 -13.3125 25 C-13.869375 24.01 -14.42625 23.02 -15 22 C-14.67 21.34 -14.34 20.68 -14 20 C-13.34 20 -12.68 20 -12 20 C-12.33 18.68 -12.66 17.36 -13 16 C-9.49223216 14.39644899 -6.85645121 13.77963136 -3 14 C-3.99 13.34 -4.98 12.68 -6 12 C-4.68 11.01 -3.36 10.02 -2 9 C-2.66 7.68 -3.32 6.36 -4 5 C-2.68 4.67 -1.36 4.34 0 4 C0 2.68 0 1.36 0 0 Z " fill="#EB8C33" transform="translate(58,39)"/>
<path d="M0 0 C0.04125 0.5775 0.0825 1.155 0.125 1.75 C1.44065958 5.13312465 3.96552364 6.19222685 7 8 C6.125 12.875 6.125 12.875 5 14 C5.66 14.33 6.32 14.66 7 15 C7 16.32 7 17.64 7 19 C7.99 19 8.98 19 10 19 C11.2077558 22.62326739 10.54311128 23.64146369 9 27 C8.401875 26.814375 7.80375 26.62875 7.1875 26.4375 C4.83591238 25.77906313 4.83591238 25.77906313 2 27 C2.09539062 27.65226562 2.19078125 28.30453125 2.2890625 28.9765625 C3.47086775 38.29358525 3.47086775 38.29358525 1 43 C-1.58975241 44.8378888 -2.78481903 45 -6 45 C-5.62875 45.556875 -5.2575 46.11375 -4.875 46.6875 C-4 49 -4 49 -4.6875 51.6875 C-6 54 -6 54 -9 55 C-9.66 54.01 -10.32 53.02 -11 52 C-12.98 52.495 -12.98 52.495 -15 53 C-14.67 54.32 -14.34 55.64 -14 57 C-19.75 60 -19.75 60 -22 60 C-22 60.66 -22 61.32 -22 62 C-25.61973402 63.31626692 -28.09567131 64 -32 64 C-33.81242323 59.9811485 -35.33501617 56.38889325 -36 52 C-36.99 52 -37.98 52 -39 52 C-39 50.35 -39 48.7 -39 47 C-38.01 47 -37.02 47 -36 47 C-35.67 46.34 -35.34 45.68 -35 45 C-34.01 45.33 -33.02 45.66 -32 46 C-32 48 -32 48 -33.5 49.625 C-34.2425 50.305625 -34.2425 50.305625 -35 51 C-33.2365625 50.319375 -33.2365625 50.319375 -31.4375 49.625 C-29.95895207 49.0816467 -28.47977966 48.53998977 -27 48 C-25.783125 47.54625 -24.56625 47.0925 -23.3125 46.625 C-20 46 -20 46 -17.0625 47.375 C-16.381875 47.91125 -15.70125 48.4475 -15 49 C-15.495 46.525 -15.495 46.525 -16 44 C-12.72029056 42.58522338 -9.45133639 41.17660989 -6.125 39.875 C-4.05288462 39.18108974 -4.05288462 39.18108974 -3 38 C-2.5542191 32.98237317 -2.64966509 28.55377389 -5 24 C-4.01 23.01 -3.02 22.02 -2 21 C-4.31 20.67 -6.62 20.34 -9 20 C-9.495 17.525 -9.495 17.525 -10 15 C-9.01 15 -8.02 15 -7 15 C-7 13.906875 -7 12.81375 -7 11.6875 C-7 9.45833333 -7 7.22916667 -7 5 C-6.34 4.67 -5.68 4.34 -5 4 C-4.67 3.01 -4.34 2.02 -4 1 C-2 0 -2 0 0 0 Z M-4 7 C-4 7.66 -4 8.32 -4 9 C-2.35 8.67 -0.7 8.34 1 8 C1 7.67 1 7.34 1 7 C-0.65 7 -2.3 7 -4 7 Z M3 10 C4 12 4 12 4 12 Z " fill="#24878D" transform="translate(148,63)"/>
<path d="M0 0 C3.95073883 0.56439126 6.97614005 1.32172405 10 4 C10.58524209 9.26717882 10.40326095 11.19347809 8 16 C11.63 16 15.26 16 19 16 C18.67 17.32 18.34 18.64 18 20 C15.36 20.66 12.72 21.32 10 22 C10.2165625 22.62648438 10.433125 23.25296875 10.65625 23.8984375 C10.9346875 24.71570313 11.213125 25.53296875 11.5 26.375 C11.7784375 27.18710938 12.056875 27.99921875 12.34375 28.8359375 C13 31 13 31 13 33 C13.66 33 14.32 33 15 33 C15.33 35.64 15.66 38.28 16 41 C14.68 41 13.36 41 12 41 C12.33 39.35 12.66 37.7 13 36 C12.01 36 11.02 36 10 36 C9.67 36.66 9.34 37.32 9 38 C7.35 37.67 5.7 37.34 4 37 C3.79375 36.05125 3.5875 35.1025 3.375 34.125 C2.29166667 30.70833333 2.29166667 30.70833333 -1.125 29.625 C-2.548125 29.315625 -2.548125 29.315625 -4 29 C-4.17835515 24.45194365 -3.99785435 21.1205746 -2 17 C-2.7425 16.3503125 -2.7425 16.3503125 -3.5 15.6875 C-5 14 -5 14 -5 11 C-5.66 11 -6.32 11 -7 11 C-7 9.35 -7 7.7 -7 6 C-4.03 6 -1.06 6 2 6 C1.34 4.02 0.68 2.04 0 0 Z M4 9 C4 9.99 4 10.98 4 12 C4.66 11.67 5.32 11.34 6 11 C6 10.34 6 9.68 6 9 C5.34 9 4.68 9 4 9 Z " fill="#1998D3" transform="translate(72,60)"/>
<path d="M0 0 C1.32 0.66 2.64 1.32 4 2 C4 6.95 4 11.9 4 17 C0.04 17.495 0.04 17.495 -4 18 C-3.67 18.99 -3.34 19.98 -3 21 C-5.64 21 -8.28 21 -11 21 C-10.67 19.68 -10.34 18.36 -10 17 C-12.64 17 -15.28 17 -18 17 C-18 12.05 -18 7.1 -18 2 C-16.17662109 1.90912109 -16.17662109 1.90912109 -14.31640625 1.81640625 C-12.73175772 1.73201668 -11.14712298 1.6473679 -9.5625 1.5625 C-8.76005859 1.52318359 -7.95761719 1.48386719 -7.13085938 1.44335938 C-3.24760439 1.5945704 -3.24760439 1.5945704 0 0 Z " fill="#F49232" transform="translate(104,112)"/>
<path d="M0 0 C0 2.8125 0 2.8125 -1 6 C-3.53967412 7.46581614 -6.17085161 8.26532365 -9 9 C-6.525 9.99 -6.525 9.99 -4 11 C-4 12.98 -4 14.96 -4 17 C-3.67 16.34 -3.34 15.68 -3 15 C-2.34 15 -1.68 15 -1 15 C-1 17.31 -1 19.62 -1 22 C0.98 22.33 2.96 22.66 5 23 C5.22211116 24.93596892 5.42722992 26.87389328 5.625 28.8125 C5.79902344 30.43091797 5.79902344 30.43091797 5.9765625 32.08203125 C6 35 6 35 4 38 C3.36707617 40.11280345 3.36707617 40.11280345 3 42 C2.34 42 1.68 42 1 42 C1 41.34 1 40.68 1 40 C-0.98 40 -2.96 40 -5 40 C-5.7579917 37.17359028 -6.27676554 34.40527039 -6.625 31.5 C-6.72039062 30.7471875 -6.81578125 29.994375 -6.9140625 29.21875 C-7.00374325 26.90335608 -6.57487757 25.23137663 -6 23 C-5.93375493 21.25113019 -5.91447405 19.49997252 -5.9375 17.75 C-5.94652344 16.85796875 -5.95554687 15.9659375 -5.96484375 15.046875 C-5.97644531 14.37140625 -5.98804687 13.6959375 -6 13 C-7.175625 12.8453125 -7.175625 12.8453125 -8.375 12.6875 C-11 12 -11 12 -13 9 C-13.39387788 6.67612053 -13.73486085 4.34206251 -14 2 C-9.41899637 0.71731898 -4.75663258 0 0 0 Z M-4 24 C-4 24.66 -4 25.32 -4 26 C-3.01 25.67 -2.02 25.34 -1 25 C-1.99 24.67 -2.98 24.34 -4 24 Z " fill="#779C48" transform="translate(113,54)"/>
<path d="M0 0 C0 0.99 0 1.98 0 3 C3.60992379 2.34414811 3.60992379 2.34414811 7 1 C8.99960012 0.960008 11.00047242 0.95653201 13 1 C13.66 2.32 14.32 3.64 15 5 C15.99 5 16.98 5 18 5 C18 5.66 18 6.32 18 7 C17.34 7 16.68 7 16 7 C14.18698242 11.43093198 14.18698242 11.43093198 15 16 C14.01 16 13.02 16 12 16 C11.67 16.66 11.34 17.32 11 18 C9.125 17.8125 9.125 17.8125 7 17 C5.9375 14.75 5.9375 14.75 5 12 C3.55956806 9.05054413 2.52828859 7.36225503 -0.1875 5.5 C-3.23155681 4.66750571 -3.23155681 4.66750571 -6.5625 6.8125 C-8.59765625 7.7265625 -8.59765625 7.7265625 -11 8 C-15.34000993 6.15749272 -19.14178262 3.69432181 -23 1 C-19.34959251 -1.43360499 -16.30511471 -1.51451019 -12.0625 -1.75 C-11.34642578 -1.80542969 -10.63035156 -1.86085938 -9.89257812 -1.91796875 C-6.05066597 -2.15296986 -3.24661411 -2.2039678 0 0 Z " fill="#84AC50" transform="translate(108,26)"/>
<path d="M0 0 C0.309375 0.639375 0.61875 1.27875 0.9375 1.9375 C1.8345163 3.93610821 1.8345163 3.93610821 3 5 C3.04063832 6.66617115 3.042721 8.33388095 3 10 C3.763125 10.061875 4.52625 10.12375 5.3125 10.1875 C8 11 8 11 9.8125 13.25 C11.05844379 16.13534352 11.09852758 17.90934524 11 21 C9.25877451 22.03572896 7.50663405 23.0531252 5.75 24.0625 C4.77546875 24.63097656 3.8009375 25.19945313 2.796875 25.78515625 C0 27 0 27 -2.25390625 26.82421875 C-4.97905342 25.53785174 -5.72646904 23.66835058 -7 21 C-8.15591275 17.00684685 -8.38302813 13.13670385 -8 9 C-6.125 7.0625 -6.125 7.0625 -4 6 C-3.34 6 -2.68 6 -2 6 C-1.855625 5.195625 -1.71125 4.39125 -1.5625 3.5625 C-1 1 -1 1 0 0 Z M-4 11 C-4.66 11.66 -5.32 12.32 -6 13 C-5.01 13 -4.02 13 -3 13 C-3.33 12.34 -3.66 11.68 -4 11 Z " fill="#D21E62" transform="translate(140,39)"/>
<path d="M0 0 C0.99 0.33 1.98 0.66 3 1 C3 3 3 3 1.5 4.625 C1.005 5.07875 0.51 5.5325 0 6 C1.175625 5.54625 2.35125 5.0925 3.5625 4.625 C5.04104793 4.0816467 6.52022034 3.53998977 8 3 C9.216875 2.54625 10.43375 2.0925 11.6875 1.625 C15 1 15 1 17.875 1.875 C21.03334006 5.03334006 20.78371817 7.6022695 21 12 C15.25 15 15.25 15 13 15 C13 15.66 13 16.32 13 17 C9.38026598 18.31626692 6.90432869 19 3 19 C1.18757677 14.9811485 -0.33501617 11.38889325 -1 7 C-1.99 7 -2.98 7 -4 7 C-4 5.35 -4 3.7 -4 2 C-3.01 2 -2.02 2 -1 2 C-0.67 1.34 -0.34 0.68 0 0 Z " fill="#217399" transform="translate(113,108)"/>
<path d="M0 0 C2.63087738 2.80061141 2.97028972 4.75807344 3.4375 8.5625 C2.91402184 12.67554269 2.21701802 13.49377974 -1 16 C-4.1640625 16.79296875 -4.1640625 16.79296875 -7.625 17.1875 C-11.96173126 17.59229011 -11.96173126 17.59229011 -16 19 C-16.27672202 17.08700862 -16.52042815 15.16922064 -16.75 13.25 C-16.88921875 12.18265625 -17.0284375 11.1153125 -17.171875 10.015625 C-17 7 -17 7 -15.19140625 4.71875 C-10.36162288 0.93068461 -6.20875566 -0.93717067 0 0 Z " fill="#F6F7F8" transform="translate(93,36)"/>
<path d="M0 0 C0 0.66 0 1.32 0 2 C-0.99 2.33 -1.98 2.66 -3 3 C-3.33 3.99 -3.66 4.98 -4 6 C-1.03 6 1.94 6 5 6 C5 4.68 5 3.36 5 2 C4.01 2 3.02 2 2 2 C2.33 1.01 2.66 0.02 3 -1 C6.86648272 0.04097612 10.49461443 1.03698408 14 3 C14.37125 2.525625 14.7425 2.05125 15.125 1.5625 C17.62646962 -0.52205802 19.81593418 -0.64621491 23 -1 C23.495 0.485 23.495 0.485 24 2 C23.01 2.33 22.02 2.66 21 3 C20.67 3.99 20.34 4.98 20 6 C24.455 5.505 24.455 5.505 29 5 C30.15811388 2.05270463 30.15811388 2.05270463 30 -1 C32.6875 -1.375 32.6875 -1.375 36 -1 C38.6875 1.9375 38.6875 1.9375 41 5 C41.99 5.33 42.98 5.66 44 6 C44 6.66 44 7.32 44 8 C41.36 8 38.72 8 36 8 C36 7.34 36 6.68 36 6 C35.01 6.66 34.02 7.32 33 8 C31.08984375 8.21118164 31.08984375 8.21118164 28.9375 8.16015625 C28.14609619 8.14863525 27.35469238 8.13711426 26.53930664 8.12524414 C25.70133545 8.10453857 24.86336426 8.08383301 24 8.0625 C18.64059583 7.98561403 13.39582641 7.9359712 8.0625 8.5625 C2.30863122 9.21388137 -3.26519359 8.65054523 -9 8 C-9 7.34 -9 6.68 -9 6 C-8.01 6 -7.02 6 -6 6 C-6 4.68 -6 3.36 -6 2 C-7.32 1.67 -8.64 1.34 -10 1 C-10 0.67 -10 0.34 -10 0 C-3.375 -1.125 -3.375 -1.125 0 0 Z " fill="#47C7A8" transform="translate(168,124)"/>
<path d="M0 0 C0.99 0.33 1.98 0.66 3 1 C3 1.66 3 2.32 3 3 C3.66 3 4.32 3 5 3 C5 2.01 5 1.02 5 0 C6.875 0.25 6.875 0.25 9 1 C10.72101535 3.58152302 11 4.84918025 11 8 C11.66 8.33 12.32 8.66 13 9 C13 9.99 13 10.98 13 12 C14.71525345 13.64086746 16.56543171 14.98618431 18.46875 16.40234375 C20 18 20 18 20 22 C10.23269604 21.41433961 5.0916566 17.42082421 -2 11 C-2.99 10.34 -3.98 9.68 -5 9 C-4.5206753 4.68607774 -3.2542015 2.83430453 0 0 Z " fill="#CD1E67" transform="translate(64,105)"/>
<path d="M0 0 C0.99 0.33 1.98 0.66 3 1 C3.6875 3.0625 3.6875 3.0625 4 5 C6.97 5.495 6.97 5.495 10 6 C10 10.95 10 15.9 10 21 C4.88004716 22.50067583 1.28781411 23.41868183 -4 22 C-5.78569161 20.21430839 -5.21468103 17.66346262 -5.25 15.25 C-5.27578125 14.20328125 -5.3015625 13.1565625 -5.328125 12.078125 C-4.95930826 8.6182727 -3.95953686 6.83371622 -2 4 C-1.31903578 2.67391178 -0.64669414 1.34313399 0 0 Z " fill="#93C14D" transform="translate(53,82)"/>
<path d="M0 0 C3.95073883 0.56439126 6.97614005 1.32172405 10 4 C10.58524209 9.26717882 10.40326095 11.19347809 8 16 C11.63 16 15.26 16 19 16 C18.67 17.32 18.34 18.64 18 20 C16.0085944 20.38133299 14.00720923 20.71325582 12 21 C11.67 20.67 11.34 20.34 11 20 C10.34 20.33 9.68 20.66 9 21 C9 20.01 9 19.02 9 18 C6.69 18.33 4.38 18.66 2 19 C1.67 18.34 1.34 17.68 1 17 C0.175 16.71125 -0.65 16.4225 -1.5 16.125 C-4 15 -4 15 -4.8125 12.875 C-4.874375 12.25625 -4.93625 11.6375 -5 11 C-5.66 11 -6.32 11 -7 11 C-7 9.35 -7 7.7 -7 6 C-4.03 6 -1.06 6 2 6 C1.34 4.02 0.68 2.04 0 0 Z M4 9 C4 9.99 4 10.98 4 12 C4.66 11.67 5.32 11.34 6 11 C6 10.34 6 9.68 6 9 C5.34 9 4.68 9 4 9 Z " fill="#208EC4" transform="translate(72,60)"/>
<path d="M0 0 C2.31 0.33 4.62 0.66 7 1 C6.14925373 9.50746269 6.14925373 9.50746269 4 13 C3.67 13.66 3.34 14.32 3 15 C2.67 15 2.34 15 2 15 C2 17.97 2 20.94 2 24 C4.31 24 6.62 24 9 24 C9.33 27.63 9.66 31.26 10 35 C8.02 35.66 6.04 36.32 4 37 C3 36 3 36 2.90234375 33.71484375 C2.91394531 32.79832031 2.92554687 31.88179687 2.9375 30.9375 C2.94652344 30.01839844 2.95554687 29.09929687 2.96484375 28.15234375 C2.97644531 27.44207031 2.98804687 26.73179688 3 26 C2.01 25.67 1.02 25.34 0 25 C-0.19456705 23.04235617 -0.38044247 21.08384679 -0.5625 19.125 C-0.71912109 17.48917969 -0.71912109 17.48917969 -0.87890625 15.8203125 C-1 13 -1 13 0 11 C-0.99 11.66 -1.98 12.32 -3 13 C-6.6875 12.625 -6.6875 12.625 -10 12 C-10.33 10.68 -10.66 9.36 -11 8 C-10.34 8 -9.68 8 -9 8 C-9 7.34 -9 6.68 -9 6 C-7.68 6 -6.36 6 -5 6 C-5 5.34 -5 4.68 -5 4 C-3.35 4 -1.7 4 0 4 C0 2.68 0 1.36 0 0 Z " fill="#F18D30" transform="translate(122,60)"/>
<path d="M0 0 C0.061875 0.86625 0.061875 0.86625 0.125 1.75 C1.44065958 5.13312465 3.96552364 6.19222685 7 8 C6.125 12.875 6.125 12.875 5 14 C5.66 14.33 6.32 14.66 7 15 C7 16.32 7 17.64 7 19 C1.28728907 21.0662997 -3.03654233 21.0006709 -9 20 C-9.33 18.35 -9.66 16.7 -10 15 C-9.01 15 -8.02 15 -7 15 C-7 13.906875 -7 12.81375 -7 11.6875 C-7 9.45833333 -7 7.22916667 -7 5 C-6.34 4.67 -5.68 4.34 -5 4 C-4.67 3.01 -4.34 2.02 -4 1 C-2 0 -2 0 0 0 Z M-4 7 C-4 7.66 -4 8.32 -4 9 C-2.35 8.67 -0.7 8.34 1 8 C1 7.67 1 7.34 1 7 C-0.65 7 -2.3 7 -4 7 Z M3 10 C4 12 4 12 4 12 Z " fill="#679544" transform="translate(148,63)"/>
<path d="M0 0 C0.33 1.98 0.66 3.96 1 6 C1.99 6 2.98 6 4 6 C4.33 8.31 4.66 10.62 5 13 C6.32 13 7.64 13 9 13 C9.66 15.64 10.32 18.28 11 21 C10.34 21.33 9.68 21.66 9 22 C8.67 21.34 8.34 20.68 8 20 C6.02 20 4.04 20 2 20 C2 18.68 2 17.36 2 16 C1.01 16.66 0.02 17.32 -1 18 C-1.99 18 -2.98 18 -4 18 C-4.33 17.01 -4.66 16.02 -5 15 C-5.37125 14.1028125 -5.37125 14.1028125 -5.75 13.1875 C-6.12728175 9.88628469 -4.6003911 7.81668834 -3 5 C-3.7425 5.515625 -4.485 6.03125 -5.25 6.5625 C-8 8 -8 8 -10.3125 7.6875 C-10.869375 7.460625 -11.42625 7.23375 -12 7 C-9.87654283 1.40179474 -5.8147806 -0.49840977 0 0 Z " fill="#1F928C" transform="translate(98,80)"/>
<path d="M0 0 C0.66 1.32 1.32 2.64 2 4 C2.37640625 4.64839844 2.7528125 5.29679687 3.140625 5.96484375 C6.13062409 11.28156749 6.13062409 11.28156749 5.5 14.75 C2.23751335 19.64372997 -0.4369972 21.22457358 -6 23 C-7.83689476 24.49886871 -7.83689476 24.49886871 -9 26 C-9.99 25.67 -10.98 25.34 -12 25 C-13.98734815 25.49277951 -13.98734815 25.49277951 -16 26.375 C-17.0209375 26.78878906 -17.0209375 26.78878906 -18.0625 27.2109375 C-19.0215625 27.60152344 -19.0215625 27.60152344 -20 28 C-20.99 28.33 -21.98 28.66 -23 29 C-23.33 28.01 -23.66 27.02 -24 26 C-23.34 26 -22.68 26 -22 26 C-22.33 24.68 -22.66 23.36 -23 22 C-20 20 -20 20 -17.3125 20.375 C-16.1678125 20.684375 -16.1678125 20.684375 -15 21 C-15 21.66 -15 22.32 -15 23 C-11.86626517 22.65180724 -10.91169918 21.91169918 -8.625 19.625 C-5.89292405 16.89292405 -3.42085806 15.71042903 0 14 C1.85315257 11.95053601 1.85315257 11.95053601 3 10 C0.525 9.505 0.525 9.505 -2 9 C-1.34 6.03 -0.68 3.06 0 0 Z M-21 25 C-20.67 25.66 -20.34 26.32 -20 27 C-19.67 26.34 -19.34 25.68 -19 25 C-19.66 25 -20.32 25 -21 25 Z " fill="#22434A" transform="translate(138,85)"/>
<path d="M0 0 C0.99 0.33 1.98 0.66 3 1 C3 1.66 3 2.32 3 3 C3.99 3.33 4.98 3.66 6 4 C5.67 4.66 5.34 5.32 5 6 C5.99 6.66 6.98 7.32 8 8 C8.27060777 12.1944205 8.34152439 15.97542684 7 20 C6.01 20 5.02 20 4 20 C3.34 18.68 2.68 17.36 2 16 C0.7922442 19.62326739 1.45688872 20.64146369 3 24 C2.34 24.66 1.68 25.32 1 26 C1 25.34 1 24.68 1 24 C0.01 24 -0.98 24 -2 24 C-2.625 22.1875 -2.625 22.1875 -3 20 C-2.34 19.01 -1.68 18.02 -1 17 C-2.32 17 -3.64 17 -5 17 C-4.625 15.0625 -4.625 15.0625 -4 13 C-3.34 12.67 -2.68 12.34 -2 12 C-1.56959776 9.71051742 -1.56959776 9.71051742 -1.4375 7.0625 C-1.09380235 2.18760469 -1.09380235 2.18760469 0 0 Z M1 11 C1.33 11.66 1.66 12.32 2 13 C2.66 13 3.32 13 4 13 C4 12.34 4 11.68 4 11 C3.01 11 2.02 11 1 11 Z " fill="#D52569" transform="translate(90,52)"/>
<path d="M0 0 C0.66 0.66 1.32 1.32 2 2 C1.01 2.66 0.02 3.32 -1 4 C-1.33 4.99 -1.66 5.98 -2 7 C0.97 7 3.94 7 7 7 C7 5.68 7 4.36 7 3 C6.01 3 5.02 3 4 3 C4 2.34 4 1.68 4 1 C11.42857143 0.71428571 11.42857143 0.71428571 15 3 C15 2.34 15 1.68 15 1 C18.3 1 21.6 1 25 1 C25 1.66 25 2.32 25 3 C23.68 3.33 22.36 3.66 21 4 C21 5.65 21 7.3 21 9 C18.98177083 8.96744792 16.96354167 8.93489583 14.9453125 8.90234375 C12.91814596 8.87350758 12.91814596 8.87350758 11 10 C9.12060547 10.02172852 9.12060547 10.02172852 6.8671875 9.87890625 C6.06152344 9.83056641 5.25585938 9.78222656 4.42578125 9.73242188 C3.58402344 9.67634766 2.74226562 9.62027344 1.875 9.5625 C0.60076172 9.48418945 0.60076172 9.48418945 -0.69921875 9.40429688 C-2.79979124 9.27448622 -4.89994191 9.1378826 -7 9 C-7 8.34 -7 7.68 -7 7 C-6.01 7 -5.02 7 -4 7 C-4 5.68 -4 4.36 -4 3 C-4.99 3 -5.98 3 -7 3 C-7 2.34 -7 1.68 -7 1 C-3.625 0.375 -3.625 0.375 0 0 Z M15 3 C15.99 3.99 16.98 4.98 18 6 C18 5.01 18 4.02 18 3 C17.01 3 16.02 3 15 3 Z M11 5 C12 7 12 7 12 7 Z " fill="#4EC4AB" transform="translate(238,123)"/>
<path d="M0 0 C1.32 0.33 2.64 0.66 4 1 C5.12709418 5.73379557 4.76287692 8.49487009 3 13 C2.87625 14.0209375 2.87625 14.0209375 2.75 15.0625 C1.48699223 18.32527008 -1.26285604 19.9034642 -4 22 C-6 21 -6 21 -6.66796875 19.22265625 C-6.83941406 18.50980469 -7.01085938 17.79695313 -7.1875 17.0625 C-7.36667969 16.35222656 -7.54585937 15.64195313 -7.73046875 14.91015625 C-8 13 -8 13 -7 11 C-6.34 11 -5.68 11 -5 11 C-4.731875 10.113125 -4.46375 9.22625 -4.1875 8.3125 C-3.08289181 5.23122452 -1.77150856 2.73778595 0 0 Z " fill="#CA2361" transform="translate(53,65)"/>
<path d="M0 0 C2 3 2 3 2 7 C2.66 7.33 3.32 7.66 4 8 C3.67 8.66 3.34 9.32 3 10 C0.69 9.01 -1.62 8.02 -4 7 C-3.01 8.485 -3.01 8.485 -2 10 C-2 10.99 -2 11.98 -2 13 C-4.97 13 -7.94 13 -11 13 C-11 14.65 -11 16.3 -11 18 C-10.34 18 -9.68 18 -9 18 C-8.731875 18.61875 -8.46375 19.2375 -8.1875 19.875 C-7.04443152 22.2995233 -7.04443152 22.2995233 -4 24 C-4.66 24.33 -5.32 24.66 -6 25 C-6.65213292 27.02463255 -6.65213292 27.02463255 -7 29 C-7.66 29 -8.32 29 -9 29 C-9 30.65 -9 32.3 -9 34 C-9.33 34 -9.66 34 -10 34 C-10.08912219 30.16774573 -9.87867729 26.73437848 -9 23 C-9.99 23.66 -10.98 24.32 -12 25 C-13.06985547 21.79043359 -12.9935121 19.95916167 -12.6875 16.625 C-12.60886719 15.68914062 -12.53023437 14.75328125 -12.44921875 13.7890625 C-11.62887388 8.69579085 -10.04642806 5.25962261 -6 2 C-2.75 0.75 -2.75 0.75 0 0 Z " fill="#2C87B2" transform="translate(76,53)"/>
<path d="M0 0 C0 2.8125 0 2.8125 -1 6 C-3.53967412 7.46581614 -6.17085161 8.26532365 -9 9 C-6.525 9.99 -6.525 9.99 -4 11 C-4 12.98 -4 14.96 -4 17 C-3.67 16.34 -3.34 15.68 -3 15 C-2.34 15 -1.68 15 -1 15 C-1 17.31 -1 19.62 -1 22 C-1.66 22.33 -2.32 22.66 -3 23 C-4.13350534 25.01669827 -4.13350534 25.01669827 -5 27 C-5.93619813 23.84493858 -6.1057123 21.03413498 -6.0625 17.75 C-6.05347656 16.85796875 -6.04445313 15.9659375 -6.03515625 15.046875 C-6.02355469 14.37140625 -6.01195313 13.6959375 -6 13 C-7.175625 12.8453125 -7.175625 12.8453125 -8.375 12.6875 C-11 12 -11 12 -13 9 C-13.39387788 6.67612053 -13.73486085 4.34206251 -14 2 C-9.41899637 0.71731898 -4.75663258 0 0 0 Z " fill="#566B3B" transform="translate(113,54)"/>
<path d="M0 0 C1.32 0.66 2.64 1.32 4 2 C4 6.95 4 11.9 4 17 C0.04 17.495 0.04 17.495 -4 18 C-3.67 18.99 -3.34 19.98 -3 21 C-5.64 21 -8.28 21 -11 21 C-10.67 19.68 -10.34 18.36 -10 17 C-12.64 17 -15.28 17 -18 17 C-18 12.05 -18 7.1 -18 2 C-16.17662109 1.90912109 -16.17662109 1.90912109 -14.31640625 1.81640625 C-12.73175772 1.73201668 -11.14712298 1.6473679 -9.5625 1.5625 C-8.76005859 1.52318359 -7.95761719 1.48386719 -7.13085938 1.44335938 C-3.24760439 1.5945704 -3.24760439 1.5945704 0 0 Z M-17 4 C-17.07226502 5.85287502 -17.0838122 7.70833878 -17.0625 9.5625 C-17.041875 11.356875 -17.02125 13.15125 -17 15 C-10.73 15 -4.46 15 2 15 C2 11.04 2 7.08 2 3 C-0.97922593 2.97316013 -3.95821295 2.95323963 -6.9375 2.9375 C-7.78763672 2.92912109 -8.63777344 2.92074219 -9.51367188 2.91210938 C-10.32255859 2.90888672 -11.13144531 2.90566406 -11.96484375 2.90234375 C-12.7137085 2.89710693 -13.46257324 2.89187012 -14.23413086 2.88647461 C-16.02667739 2.80658248 -16.02667739 2.80658248 -17 4 Z " fill="#C6844B" transform="translate(104,112)"/>
<path d="M0 0 C0 0.99 0 1.98 0 3 C0.66 3.33 1.32 3.66 2 4 C0.84371094 4.30744141 0.84371094 4.30744141 -0.3359375 4.62109375 C-1.33882812 4.89050781 -2.34171875 5.15992188 -3.375 5.4375 C-4.37273437 5.70433594 -5.37046875 5.97117187 -6.3984375 6.24609375 C-8.95417701 6.90184356 -8.95417701 6.90184356 -11 8 C-13.8203125 6.56640625 -13.8203125 6.56640625 -17.125 4.5625 C-18.22070312 3.90378906 -19.31640625 3.24507812 -20.4453125 2.56640625 C-21.28835937 2.04949219 -22.13140625 1.53257813 -23 1 C-19.34959251 -1.43360499 -16.30511471 -1.51451019 -12.0625 -1.75 C-11.34642578 -1.80542969 -10.63035156 -1.86085938 -9.89257812 -1.91796875 C-6.05066597 -2.15296986 -3.24661411 -2.2039678 0 0 Z " fill="#119E96" transform="translate(108,26)"/>
<path d="M0 0 C0.99 0.33 1.98 0.66 3 1 C3 1.66 3 2.32 3 3 C3.66 3 4.32 3 5 3 C5 2.01 5 1.02 5 0 C6.875 0.25 6.875 0.25 9 1 C10.72101535 3.58152302 11 4.84918025 11 8 C11.66 8.33 12.32 8.66 13 9 C13 9.99 13 10.98 13 12 C14.71525345 13.64086746 16.56543171 14.98618431 18.46875 16.40234375 C20 18 20 18 20 22 C18.20601116 21.74500159 16.41479125 21.47046186 14.625 21.1875 C13.62726563 21.03667969 12.62953125 20.88585937 11.6015625 20.73046875 C9 20 9 20 7 17 C7.66 17 8.32 17 9 17 C9 13.04 9 9.08 9 5 C6.03 5 3.06 5 0 5 C0 4.34 0 3.68 0 3 C-0.66 2.67 -1.32 2.34 -2 2 C-1.34 1.34 -0.68 0.68 0 0 Z " fill="#A02258" transform="translate(64,105)"/>
<path d="M0 0 C0.99 0.33 1.98 0.66 3 1 C3.6875 3.0625 3.6875 3.0625 4 5 C6.97 5.495 6.97 5.495 10 6 C10 10.95 10 15.9 10 21 C9.67 21 9.34 21 9 21 C8.67 17.37 8.34 13.74 8 10 C5.03 10 2.06 10 -1 10 C-1.33 13.63 -1.66 17.26 -2 21 C0.64 21 3.28 21 6 21 C3.29165469 22.77084117 2.10735541 23.01052504 -1.1875 22.6875 C-4 22 -4 22 -5 21 C-5.15252309 19.08759516 -5.22192773 17.16827201 -5.25 15.25 C-5.27578125 14.20328125 -5.3015625 13.1565625 -5.328125 12.078125 C-4.95930826 8.6182727 -3.95953686 6.83371622 -2 4 C-1.31903578 2.67391178 -0.64669414 1.34313399 0 0 Z " fill="#849D59" transform="translate(53,82)"/>
<path d="M0 0 C0.33 0.66 0.66 1.32 1 2 C0.67 2.99 0.34 3.98 0 5 C1.32 4.67 2.64 4.34 4 4 C3.67 4.66 3.34 5.32 3 6 C-0.0625 6.625 -0.0625 6.625 -3 7 C-2.443125 7.8353125 -2.443125 7.8353125 -1.875 8.6875 C-1 11 -1 11 -1.6875 13.6875 C-3 16 -3 16 -6 17 C-6.66 16.01 -7.32 15.02 -8 14 C-8.99 14.33 -9.98 14.66 -11 15 C-12 14 -12 14 -12.0625 11.125 C-12.041875 10.09375 -12.02125 9.0625 -12 8 C-12 7.01 -12 6.02 -12 5 C-11.30132812 4.80664062 -10.60265625 4.61328125 -9.8828125 4.4140625 C-8.97273437 4.15367188 -8.06265625 3.89328125 -7.125 3.625 C-6.22007812 3.36976562 -5.31515625 3.11453125 -4.3828125 2.8515625 C-1.85430274 2.1395685 -1.85430274 2.1395685 0 0 Z " fill="#1D9280" transform="translate(145,101)"/>
<path d="M0 0 C0 2.64 0 5.28 0 8 C-5.94 8 -11.88 8 -18 8 C-17.01 7.01 -16.02 6.02 -15 5 C-14.67 4.01 -14.34 3.02 -14 2 C-15.65 2 -17.3 2 -19 2 C-19 1.34 -19 0.68 -19 0 C-16.39619004 -0.19476139 -13.79224467 -0.38108614 -11.1875 -0.5625 C-10.44951172 -0.61857422 -9.71152344 -0.67464844 -8.95117188 -0.73242188 C-5.63211484 -0.95769724 -3.18767436 -1.06255812 0 0 Z M-4 2 C-4.33 3.32 -4.66 4.64 -5 6 C-4.01 5.67 -3.02 5.34 -2 5 C-2.66 4.01 -3.32 3.02 -4 2 Z " fill="#48C2A6" transform="translate(263,106)"/>
<path d="M0 0 C3.72433382 1.2125738 7.37802806 2.50859979 11 4 C11.391875 3.525625 11.78375 3.05125 12.1875 2.5625 C14.40808374 0.64820367 16.13375709 0.38733012 19 0 C19.33 0.99 19.66 1.98 20 3 C19.01 3.495 19.01 3.495 18 4 C17.67 4.99 17.34 5.98 17 7 C17.99 7 18.98 7 20 7 C20 7.66 20 8.32 20 9 C13.07 9 6.14 9 -1 9 C-1 8.34 -1 7.68 -1 7 C-0.01 7 0.98 7 2 7 C2 5.68 2 4.36 2 3 C1.01 3 0.02 3 -1 3 C-0.67 2.01 -0.34 1.02 0 0 Z M14 5 C13.67 5.66 13.34 6.32 13 7 C13.66 7 14.32 7 15 7 C14.67 6.34 14.34 5.68 14 5 Z " fill="#48BFA4" transform="translate(287,105)"/>
<path d="M0 0 C0.99 2.64 1.98 5.28 3 8 C1.37750059 8.83819158 -0.24808497 9.6704116 -1.875 10.5 C-2.77992187 10.9640625 -3.68484375 11.428125 -4.6171875 11.90625 C-7 13 -7 13 -9 13 C-12 7.375 -12 7.375 -12 4 C-10.75539217 3.32332002 -9.50403104 2.65905281 -8.25 2 C-7.55390625 1.62875 -6.8578125 1.2575 -6.140625 0.875 C-4 0 -4 0 0 0 Z " fill="#1A95D0" transform="translate(128,111)"/>
<path d="M0 0 C0.99 0.99 1.98 1.98 3 3 C1.84826645 5.46800047 0.95216435 7.04783565 -1 9 C-1 9.33 -1 9.66 -1 10 C3.29 10.33 7.58 10.66 12 11 C12 11.66 12 12.32 12 13 C6.39 13 0.78 13 -5 13 C-5 17.95 -5 22.9 -5 28 C-5.33 28 -5.66 28 -6 28 C-6.02690844 25.37493198 -6.04679404 22.75013827 -6.0625 20.125 C-6.07087891 19.37863281 -6.07925781 18.63226563 -6.08789062 17.86328125 C-6.11328125 12.2265625 -6.11328125 12.2265625 -5 10 C-5.639375 9.87625 -6.27875 9.7525 -6.9375 9.625 C-7.618125 9.41875 -8.29875 9.2125 -9 9 C-9.33 8.34 -9.66 7.68 -10 7 C-3.71428571 1.57142857 -3.71428571 1.57142857 0 0 Z " fill="#B0643E" transform="translate(91,101)"/>
<path d="M0 0 C3.00212241 0.08844223 5.99746816 0.06005064 9 0 C9 0.66 9 1.32 9 2 C8.01 2 7.02 2 6 2 C6 3.98 6 5.96 6 8 C0.72 8 -4.56 8 -10 8 C-10 7.34 -10 6.68 -10 6 C-9.01 6 -8.02 6 -7 6 C-7 4.68 -7 3.36 -7 2 C-7.99 2 -8.98 2 -10 2 C-10 1.34 -10 0.68 -10 0 C-6.36827405 -1.25713591 -3.7403311 -0.63515056 0 0 Z M2 2 C3 4 3 4 3 4 Z " fill="#49C4A8" transform="translate(343,124)"/>
<path d="M0 0 C0 0.66 0 1.32 0 2 C-0.66 2 -1.32 2 -2 2 C-1.41196203 5.02419525 -0.77321882 8.01758453 0 11 C-0.66 11 -1.32 11 -2 11 C-2 11.66 -2 12.32 -2 13 C-4.75 13.375 -4.75 13.375 -8 13 C-10.375 10 -10.375 10 -12 7 C-11.67 6.34 -11.34 5.68 -11 5 C-10.34 5 -9.68 5 -9 5 C-9.33 3.68 -9.66 2.36 -10 1 C-6.1496895 -1.56687367 -4.41430237 -0.83288724 0 0 Z " fill="#1C7B79" transform="translate(55,54)"/>
<path d="M0 0 C1.21236328 0.02707031 1.21236328 0.02707031 2.44921875 0.0546875 C3.37154297 0.08949219 3.37154297 0.08949219 4.3125 0.125 C5.3025 2.105 6.2925 4.085 7.3125 6.125 C-0.30627173 11.0010139 -0.30627173 11.0010139 -5.6875 10.125 C-7.8262261 6.91691085 -8.16480962 5.84801503 -7.6875 2.125 C-4.48369983 -0.01086678 -3.66810033 -0.10632175 0 0 Z " fill="#F1F4F6" transform="translate(106.6875,43.875)"/>
<path d="M0 0 C1.11375 0.556875 1.11375 0.556875 2.25 1.125 C4.94283647 2.29515863 4.94283647 2.29515863 7.3125 1.125 C7.869375 0.75375 8.42625 0.3825 9 0 C11.24281523 5.20333134 12.55577239 8.34264585 11 14 C8.69 13.67 6.38 13.34 4 13 C4 12.34 4 11.68 4 11 C4.66 10.67 5.32 10.34 6 10 C5.67 9.01 5.34 8.02 5 7 C4.67 7.99 4.34 8.98 4 10 C2.68 9.67 1.36 9.34 0 9 C0.99 9 1.98 9 3 9 C3 8.01 3 7.02 3 6 C2.01 6.66 1.02 7.32 0 8 C-2.1875 7.625 -2.1875 7.625 -4 7 C-4 6.34 -4 5.68 -4 5 C-2.68 4.67 -1.36 4.34 0 4 C0 2.68 0 1.36 0 0 Z " fill="#E28F35" transform="translate(58,39)"/>
<path d="M0 0 C6.93 0.495 6.93 0.495 14 1 C13.67 2.98 13.34 4.96 13 7 C14.32 6.67 15.64 6.34 17 6 C17 6.99 17 7.98 17 9 C11.58461538 9.36923077 11.58461538 9.36923077 8.625 7.5 C8.08875 7.005 7.5525 6.51 7 6 C7.33 6.99 7.66 7.98 8 9 C5.03 9 2.06 9 -1 9 C-1 8.34 -1 7.68 -1 7 C-0.01 7 0.98 7 2 7 C2 5.68 2 4.36 2 3 C1.01 3 0.02 3 -1 3 C-0.67 2.01 -0.34 1.02 0 0 Z " fill="#46D5B3" transform="translate(225,105)"/>
<path d="M0 0 C3.37462715 0.54723683 5.08235 1.0549 8 3 C8 4.32 8 5.64 8 7 C5.69 7.33 3.38 7.66 1 8 C1.66 9.98 2.32 11.96 3 14 C-0.28976808 15.09658936 -1.71303767 14.79953138 -5 14 C-5 13.01 -5 12.02 -5 11 C-5.66 11 -6.32 11 -7 11 C-7 9.35 -7 7.7 -7 6 C-4.03 6 -1.06 6 2 6 C1.34 4.02 0.68 2.04 0 0 Z " fill="#1998D4" transform="translate(72,60)"/>
<path d="M0 0 C2.4375 0.6875 2.4375 0.6875 5 2 C5.9375 4.5 5.9375 4.5 6 7 C5.34 7.66 4.68 8.32 4 9 C4.66 9.33 5.32 9.66 6 10 C5.67 10.99 5.34 11.98 5 13 C4.01 13 3.02 13 2 13 C2 12.34 2 11.68 2 11 C0.576875 11.2784375 0.576875 11.2784375 -0.875 11.5625 C-4 12 -4 12 -6 11 C-6 8.69 -6 6.38 -6 4 C-4.7934375 3.566875 -4.7934375 3.566875 -3.5625 3.125 C-0.8673532 2.26737432 -0.8673532 2.26737432 0 0 Z M2 5 C3 7 3 7 3 7 Z " fill="#94C04C" transform="translate(149,68)"/>
<path d="M0 0 C3.25 0.4375 3.25 0.4375 5.875 3.3125 C6.65875 4.34375 7.4425 5.375 8.25 6.4375 C10.39980497 7.81004588 10.39980497 7.81004588 12.25 8.4375 C12.25 8.7675 12.25 9.0975 12.25 9.4375 C9.61 9.4375 6.97 9.4375 4.25 9.4375 C4.25 8.7775 4.25 8.1175 4.25 7.4375 C3.26 7.4375 2.27 7.4375 1.25 7.4375 C1.25 8.0975 1.25 8.7575 1.25 9.4375 C-1.39 9.4375 -4.03 9.4375 -6.75 9.4375 C-6.75 8.7775 -6.75 8.1175 -6.75 7.4375 C-5.43 6.7775 -4.11 6.1175 -2.75 5.4375 C-3.0284375 4.4784375 -3.0284375 4.4784375 -3.3125 3.5 C-3.456875 2.819375 -3.60125 2.13875 -3.75 1.4375 C-2.75 0.4375 -2.75 0.4375 0 0 Z " fill="#48C2A6" transform="translate(271.75,104.5625)"/>
<path d="M0 0 C0.309375 0.639375 0.61875 1.27875 0.9375 1.9375 C1.8345163 3.93610821 1.8345163 3.93610821 3 5 C3.30464414 7.81795827 3.18410696 9.59726602 2 12.1875 C-1.01931231 14.92375178 -4.02872649 15.21876587 -8 16 C-8.25 12.6875 -8.25 12.6875 -8 9 C-6.125 7.0625 -6.125 7.0625 -4 6 C-3.34 6 -2.68 6 -2 6 C-1.855625 5.195625 -1.71125 4.39125 -1.5625 3.5625 C-1 1 -1 1 0 0 Z M-4 11 C-4.66 11.66 -5.32 12.32 -6 13 C-5.01 13 -4.02 13 -3 13 C-3.33 12.34 -3.66 11.68 -4 11 Z " fill="#775059" transform="translate(140,39)"/>
<path d="M0 0 C2 2 2 2 2.125 5.125 C2.08375 6.07375 2.0425 7.0225 2 8 C-1.14090937 9.8759207 -3.07883742 10.18257272 -6.6875 9.6875 C-7.47511719 9.58824219 -8.26273437 9.48898438 -9.07421875 9.38671875 C-11 9 -11 9 -12 8 C-11.71269945 5.66055264 -11.38063221 3.3260857 -11 1 C-7.07703567 -0.30765478 -4.13997567 -0.1971417 0 0 Z M-8 3 C-8.33 4.32 -8.66 5.64 -9 7 C-6.36 7 -3.72 7 -1 7 C-1 5.68 -1 4.36 -1 3 C-3.31 3 -5.62 3 -8 3 Z " fill="#4DBDA6" transform="translate(328,123)"/>
<path d="M0 0 C-1.9985392 4.82980306 -5.27631522 6.61284615 -9.6875 9.0625 C-13.03565915 10.61609514 -13.03565915 10.61609514 -14 13 C-15.32 13 -16.64 13 -18 13 C-18.66 11.35 -19.32 9.7 -20 8 C-19.37351562 7.81824219 -18.74703125 7.63648437 -18.1015625 7.44921875 C-16.87566406 7.07216797 -16.87566406 7.07216797 -15.625 6.6875 C-14.81289062 6.44386719 -14.00078125 6.20023437 -13.1640625 5.94921875 C-10.66815371 5.08631815 -10.66815371 5.08631815 -9 2 C-8.34 2 -7.68 2 -7 2 C-7 1.34 -7 0.68 -7 0 C-4.3333581 -1.33332095 -2.83319697 -0.67102033 0 0 Z " fill="#8E4554" transform="translate(141,95)"/>
<path d="M0 0 C0.33 0.33 0.66 0.66 1 1 C3.98650805 1.6644218 3.98650805 1.6644218 7 2 C7.33 1.67 7.66 1.34 8 1 C11.3 1.99 14.6 2.98 18 4 C15.18129713 6.81870287 12.90943055 6.7303841 9 7 C8.360625 6.67 7.72125 6.34 7.0625 6 C3.68698713 4.3633877 0.6387466 5.39354223 -3 6 C-4.0625 4.125 -4.0625 4.125 -5 2 C-4.67 1.34 -4.34 0.68 -4 0 C-5.32 -0.33 -6.64 -0.66 -8 -1 C-4.59761273 -2.21513831 -3.05338441 -1.89520412 0 0 Z " fill="#F0F2F7" transform="translate(252,86)"/>
<path d="M0 0 C2.64590014 -0.02684679 5.29153096 -0.04676357 7.9375 -0.0625 C8.69224609 -0.07087891 9.44699219 -0.07925781 10.22460938 -0.08789062 C12.14994313 -0.09652441 14.07535581 -0.05224333 16 0 C17 1 17 1 17.125 4 C17 7 17 7 16 8 C13.30345146 8.07319621 10.63308542 8.09242537 7.9375 8.0625 C6.79958008 8.05573242 6.79958008 8.05573242 5.63867188 8.04882812 C3.75908129 8.0370068 1.87953101 8.01907078 0 8 C0 7.34 0 6.68 0 6 C0.99 6 1.98 6 3 6 C3 4.68 3 3.36 3 2 C2.01 2 1.02 2 0 2 C0 1.34 0 0.68 0 0 Z M6 2 C6 3.32 6 4.64 6 6 C8.64 6 11.28 6 14 6 C14 4.68 14 3.36 14 2 C11.36 2 8.72 2 6 2 Z " fill="#55C9B0" transform="translate(203,106)"/>
<path d="M0 0 C-0.33 0.99 -0.66 1.98 -1 3 C-0.01 3.33 0.98 3.66 2 4 C2 5.98 2 7.96 2 10 C-0.64 10.33 -3.28 10.66 -6 11 C-7.31626692 7.38026598 -8 4.90432869 -8 1 C-5.07175348 0.02391783 -3.04386724 -0.08226668 0 0 Z " fill="#8EC043" transform="translate(114,80)"/>
<path d="M0 0 C0.33 0 0.66 0 1 0 C1.33 2.97 1.66 5.94 2 9 C4.31 9 6.62 9 9 9 C9.33 12.63 9.66 16.26 10 20 C8.02 20.66 6.04 21.32 4 22 C3 21 3 21 2.90234375 18.71484375 C2.91394531 17.79832031 2.92554687 16.88179687 2.9375 15.9375 C2.94652344 15.01839844 2.95554687 14.09929687 2.96484375 13.15234375 C2.98224609 12.08693359 2.98224609 12.08693359 3 11 C2.01 10.67 1.02 10.34 0 10 C0 6.7 0 3.4 0 0 Z " fill="#CB8544" transform="translate(122,75)"/>
<path d="M0 0 C4.85937062 1.10023486 7.28350962 1.78943991 10 6 C10.99 6.33 11.98 6.66 13 7 C13 7.66 13 8.32 13 9 C10.36 9 7.72 9 5 9 C5 8.34 5 7.68 5 7 C4.01 7.66 3.02 8.32 2 9 C-0.04296875 9.1953125 -0.04296875 9.1953125 -2.1875 9.125 C-4.0746875 9.063125 -4.0746875 9.063125 -6 9 C-5 7 -5 7 -3 6.1875 C-0.71525923 5.14044802 -0.71525923 5.14044802 -0.25 2.375 C-0.1675 1.59125 -0.085 0.8075 0 0 Z " fill="#48CBAC" transform="translate(269,123)"/>
<path d="M0 0 C0.33 1.98 0.66 3.96 1 6 C-1.89114049 8.1258386 -3.48996979 9 -7.125 9 C-10 8 -10 8 -11.875 5.4375 C-12.24625 4.633125 -12.6175 3.82875 -13 3 C-8.90588383 -1.48403199 -5.77578483 -0.98079365 0 0 Z M-8 2 C-8 3.32 -8 4.64 -8 6 C-7.01 5.67 -6.02 5.34 -5 5 C-5.33 4.34 -5.66 3.68 -6 3 C-5.01 2.67 -4.02 2.34 -3 2 C-4.65 2 -6.3 2 -8 2 Z " fill="#4CC3AA" transform="translate(227,124)"/>
<path d="M0 0 C5.38839663 8.08259494 7.51923851 20.39408755 7 30 C5.02 30.99 5.02 30.99 3 32 C2 31 2 31 1.8671875 28.9609375 C1.87923712 24.97251339 1.95648982 21.25671008 2.625 17.3125 C3.08529651 13.24654749 2.3300675 10.83372396 1 7 C0.67 7 0.34 7 0 7 C0 4.69 0 2.38 0 0 Z " fill="#D38640" transform="translate(131,59)"/>
<path d="M0 0 C0 0.99 0 1.98 0 3 C-2.31 2.67 -4.62 2.34 -7 2 C-7 3.32 -7 4.64 -7 6 C-5.68 6.33 -4.36 6.66 -3 7 C-3 7.66 -3 8.32 -3 9 C-6.3 9 -9.6 9 -13 9 C-13 8.01 -13 7.02 -13 6 C-12.01 6 -11.02 6 -10 6 C-10 4.68 -10 3.36 -10 2 C-12.31 2.33 -14.62 2.66 -17 3 C-17 2.01 -17 1.02 -17 0 C-14.54203147 -0.19436491 -12.08390706 -0.3807742 -9.625 -0.5625 C-8.92632812 -0.61857422 -8.22765625 -0.67464844 -7.5078125 -0.73242188 C-2.2265625 -1.11328125 -2.2265625 -1.11328125 0 0 Z " fill="#55C6AE" transform="translate(302,124)"/>
<path d="M0 0 C0.66 1.32 1.32 2.64 2 4 C2.99 4 3.98 4 5 4 C5 4.66 5 5.32 5 6 C4.34 6 3.68 6 3 6 C2.34 7.65 1.68 9.3 1 11 C0.34 11 -0.32 11 -1 11 C-1 9.68 -1 8.36 -1 7 C-3.31 7 -5.62 7 -8 7 C-8 5.02 -8 3.04 -8 1 C-5.29120665 -0.35439668 -2.99066732 -0.06501451 0 0 Z " fill="#96B961" transform="translate(121,27)"/>
<path d="M0 0 C1 1 1 1 1.1875 3.4375 C1 6 1 6 -1 8 C-1.99 8 -2.98 8 -4 8 C-4.66 7.34 -5.32 6.68 -6 6 C-9.08347826 5.83318891 -9.08347826 5.83318891 -12 6 C-10.62237014 3.38250326 -9.53136569 1.38966817 -7.125 -0.375 C-4.41611843 -1.17172987 -2.68146607 -0.79719262 0 0 Z " fill="#3886A8" transform="translate(108,34)"/>
<path d="M0 0 C0.99 0 1.98 0 3 0 C5.35001386 6.47913427 6.38458877 11.20292787 5 18 C3.35 18.33 1.7 18.66 0 19 C0 12.73 0 6.46 0 0 Z " fill="#10A89C" transform="translate(145,87)"/>
<path d="M0 0 C1.65 0 3.3 0 5 0 C6.06546953 3.1964086 6.07427838 5.65747276 6 9 C3.6739143 9.38063221 1.33944736 9.71269945 -1 10 C-1.33 9.67 -1.66 9.34 -2 9 C-1.30232558 2.60465116 -1.30232558 2.60465116 0 0 Z " fill="#93C63E" transform="translate(54,92)"/>
<path d="M0 0 C2.87974108 2.87974108 3.56972597 4.37663912 5 8 C5.66 8.33 6.32 8.66 7 9 C7.5625 11.1875 7.5625 11.1875 8 14 C8.185625 15.093125 8.37125 16.18625 8.5625 17.3125 C8.706875 18.199375 8.85125 19.08625 9 20 C8.0925 20.4125 7.185 20.825 6.25 21.25 C2.98113176 22.79970751 2.98113176 22.79970751 0.875 25.1875 C-1 27 -1 27 -5 27 C-5 26.34 -5 25.68 -5 25 C-3.35 25 -1.7 25 0 25 C0 23.35 0 21.7 0 20 C3.465 19.505 3.465 19.505 7 19 C6.67 18.236875 6.34 17.47375 6 16.6875 C5 14 5 14 5 11 C4.34 11 3.68 11 3 11 C2.01 7.37 1.02 3.74 0 0 Z " fill="#2E759E" transform="translate(82,82)"/>
<path d="M0 0 C1.98 0 3.96 0 6 0 C6 0.66 6 1.32 6 2 C5.01 2 4.02 2 3 2 C2.67 2.66 2.34 3.32 2 4 C-2.46751863 5.93261547 -5.99730671 6.16823393 -10.8125 5.75 C-12.52373047 5.61851563 -12.52373047 5.61851563 -14.26953125 5.484375 C-15.17058594 5.32453125 -16.07164063 5.1646875 -17 5 C-17.33 4.34 -17.66 3.68 -18 3 C-15.03 2.34 -12.06 1.68 -9 1 C-9 1.99 -9 2.98 -9 4 C-8.2575 3.67 -7.515 3.34 -6.75 3 C-4 2 -4 2 0 2 C0 1.34 0 0.68 0 0 Z " fill="#DB863A" transform="translate(121,59)"/>
<path d="M0 0 C1.98 0 3.96 0 6 0 C5.67 2.97 5.34 5.94 5 9 C2.36 9 -0.28 9 -3 9 C-3.33 8.01 -3.66 7.02 -4 6 C-3.67 5.34 -3.34 4.68 -3 4 C-2.34 4 -1.68 4 -1 4 C-0.67 2.68 -0.34 1.36 0 0 Z " fill="#E91B6C" transform="translate(49,72)"/>
<path d="M0 0 C0.99 0.33 1.98 0.66 3 1 C2.8125 2.875 2.8125 2.875 2 5 C-0.5625 6.25 -0.5625 6.25 -3 7 C-2.67 8.65 -2.34 10.3 -2 12 C-5.05263664 12.98120464 -6.94736336 12.98120464 -10 12 C-10.33 10.68 -10.66 9.36 -11 8 C-10.34 8 -9.68 8 -9 8 C-9 7.34 -9 6.68 -9 6 C-7.68 6 -6.36 6 -5 6 C-5 5.34 -5 4.68 -5 4 C-3.35 4 -1.7 4 0 4 C0 2.68 0 1.36 0 0 Z " fill="#D67F2E" transform="translate(122,60)"/>
<path d="M0 0 C3.78695173 0.5409931 5.62745972 2.03432464 8 5 C8 6.32 8 7.64 8 9 C4.37 8.34 0.74 7.68 -3 7 C-2.01 4.69 -1.02 2.38 0 0 Z " fill="#468681" transform="translate(76,118)"/>
<path d="M0 0 C1.32 0.66 2.64 1.32 4 2 C3.67 6.62 3.34 11.24 3 16 C-3.6 16 -10.2 16 -17 16 C-17 15.67 -17 15.34 -17 15 C-10.73 15 -4.46 15 2 15 C2 11.04 2 7.08 2 3 C-4.27 3 -10.54 3 -17 3 C-17 2.67 -17 2.34 -17 2 C-15.85660156 1.93941406 -14.71320313 1.87882812 -13.53515625 1.81640625 C-12.04425695 1.73201572 -10.55337225 1.64736698 -9.0625 1.5625 C-8.30775391 1.52318359 -7.55300781 1.48386719 -6.77539062 1.44335938 C-3.08055813 1.55961976 -3.08055813 1.55961976 0 0 Z " fill="#C06C22" transform="translate(104,112)"/>
<path d="M0 0 C-0.33 1.98 -0.66 3.96 -1 6 C-4.63 6 -8.26 6 -12 6 C-12.66 4.68 -13.32 3.36 -14 2 C-9.41899637 0.71731898 -4.75663258 0 0 0 Z " fill="#3CAD94" transform="translate(113,54)"/>
<path d="M0 0 C1.65 0.33 3.3 0.66 5 1 C5 1.99 5 2.98 5 4 C5.99 4.33 6.98 4.66 8 5 C6.68 5 5.36 5 4 5 C4 5.66 4 6.32 4 7 C-2.4 10.07692308 -2.4 10.07692308 -5.4375 9.6875 C-5.953125 9.460625 -6.46875 9.23375 -7 9 C-7 8.34 -7 7.68 -7 7 C-6.360625 6.87625 -5.72125 6.7525 -5.0625 6.625 C-4.381875 6.41875 -3.70125 6.2125 -3 6 C-2.67 5.34 -2.34 4.68 -2 4 C-2.66 3.67 -3.32 3.34 -4 3 C-1 2 -1 2 0 2 C0 1.34 0 0.68 0 0 Z " fill="#32313A" transform="translate(108,97)"/>
<path d="M0 0 C1 2 1 2 0.25 4.5625 C-1 7 -1 7 -4 8 C-4.66 7.01 -5.32 6.02 -6 5 C-6.99 5.33 -7.98 5.66 -9 6 C-9.33 4.35 -9.66 2.7 -10 1 C-6.52674819 -0.1577506 -3.63932552 -0.06866652 0 0 Z " fill="#83B54B" transform="translate(143,110)"/>
<path d="M0 0 C0 0.99 0 1.98 0 3 C0.66 3.33 1.32 3.66 2 4 C0.02 4.33 -1.96 4.66 -4 5 C-4 3.68 -4 2.36 -4 1 C-5.20398438 1.09539063 -6.40796875 1.19078125 -7.6484375 1.2890625 C-9.22391877 1.40159688 -10.79944195 1.51354573 -12.375 1.625 C-13.1690625 1.68945312 -13.963125 1.75390625 -14.78125 1.8203125 C-16.85028224 1.96058587 -18.92625536 1.98758237 -21 2 C-21.66 1.34 -22.32 0.68 -23 0 C-19.36836041 -1.21054653 -15.85174246 -1.43307459 -12.0625 -1.6875 C-11.34642578 -1.74744141 -10.63035156 -1.80738281 -9.89257812 -1.86914062 C-6.04152304 -2.12968467 -3.25547865 -2.21848545 0 0 Z " fill="#1F8584" transform="translate(108,26)"/>
<path d="M0 0 C0 0.66 0 1.32 0 2 C-0.99 2.33 -1.98 2.66 -3 3 C-3.33 3.99 -3.66 4.98 -4 6 C-0.7 6 2.6 6 6 6 C2.47320901 8.35119399 0.97120515 8.21443452 -3.1875 8.125 C-4.27417969 8.10695312 -5.36085937 8.08890625 -6.48046875 8.0703125 C-7.72763672 8.03550781 -7.72763672 8.03550781 -9 8 C-9 7.34 -9 6.68 -9 6 C-8.01 6 -7.02 6 -6 6 C-6 4.68 -6 3.36 -6 2 C-7.32 1.67 -8.64 1.34 -10 1 C-10 0.67 -10 0.34 -10 0 C-3.375 -1.125 -3.375 -1.125 0 0 Z " fill="#54B8A5" transform="translate(168,124)"/>
<path d="M0 0 C0.763125 0.20625 1.52625 0.4125 2.3125 0.625 C2.3125 1.285 2.3125 1.945 2.3125 2.625 C3.3025 2.625 4.2925 2.625 5.3125 2.625 C5.3125 3.285 5.3125 3.945 5.3125 4.625 C4.04192818 5.10485967 2.77103152 5.5838593 1.5 6.0625 C0.43845703 6.46275391 0.43845703 6.46275391 -0.64453125 6.87109375 C-2.31422396 7.48725186 -3.99907704 8.06219235 -5.6875 8.625 C-6.0175 7.635 -6.3475 6.645 -6.6875 5.625 C-6.0275 5.625 -5.3675 5.625 -4.6875 5.625 C-5.0175 4.305 -5.3475 2.985 -5.6875 1.625 C-2.6875 -0.375 -2.6875 -0.375 0 0 Z M-3.6875 4.625 C-3.3575 5.285 -3.0275 5.945 -2.6875 6.625 C-2.3575 5.965 -2.0275 5.305 -1.6875 4.625 C-2.3475 4.625 -3.0075 4.625 -3.6875 4.625 Z " fill="#384255" transform="translate(120.6875,105.375)"/>
<path d="M0 0 C0.99386719 0.00902344 1.98773438 0.01804687 3.01171875 0.02734375 C4.15060547 0.04474609 4.15060547 0.04474609 5.3125 0.0625 C5.3125 0.3925 5.3125 0.7225 5.3125 1.0625 C2.0125 1.3925 -1.2875 1.7225 -4.6875 2.0625 C-5.0175 5.6925 -5.3475 9.3225 -5.6875 13.0625 C-3.0475 13.0625 -0.4075 13.0625 2.3125 13.0625 C-0.39584531 14.83334117 -1.58014459 15.07302504 -4.875 14.75 C-7.6875 14.0625 -7.6875 14.0625 -8.6875 13.0625 C-8.75994053 11.04285801 -8.77127188 9.02082876 -8.75 7 C-8.74097656 5.89527344 -8.73195312 4.79054688 -8.72265625 3.65234375 C-8.71105469 2.79769531 -8.69945312 1.94304687 -8.6875 1.0625 C-5.53819107 0.01273036 -3.29935544 -0.03881595 0 0 Z " fill="#618333" transform="translate(56.6875,89.9375)"/>
<path d="M0 0 C2.0625 0.4375 2.0625 0.4375 4 1 C4 1.66 4 2.32 4 3 C3.34 3 2.68 3 2 3 C2 3.66 2 4.32 2 5 C2.66 5.33 3.32 5.66 4 6 C3.67 6.66 3.34 7.32 3 8 C3.66 8.33 4.32 8.66 5 9 C4.67 9.99 4.34 10.98 4 12 C2.68 12 1.36 12 0 12 C-1.8125 9.625 -1.8125 9.625 -3 7 C-2.67 6.34 -2.34 5.68 -2 5 C-1.34 5 -0.68 5 0 5 C-0.2784375 4.0409375 -0.2784375 4.0409375 -0.5625 3.0625 C-0.706875 2.381875 -0.85125 1.70125 -1 1 C-0.67 0.67 -0.34 0.34 0 0 Z " fill="#18A197" transform="translate(46,54)"/>
<path d="M0 0 C2.31 0 4.62 0 7 0 C8.80411967 2.75924185 9.0127245 3.88972103 8.625 7.25 C8.41875 8.1575 8.2125 9.065 8 10 C5.69 9.67 3.38 9.34 1 9 C1 8.34 1 7.68 1 7 C1.66 6.67 2.32 6.34 3 6 C3.65555119 3.47266765 3.65555119 3.47266765 4 1 C2.68 0.67 1.36 0.34 0 0 Z " fill="#F49135" transform="translate(61,43)"/>
<path d="M0 0 C0 0.66 0 1.32 0 2 C-1.32 2 -2.64 2 -4 2 C-4 3.32 -4 4.64 -4 6 C-3.01 6 -2.02 6 -1 6 C-1 6.66 -1 7.32 -1 8 C-3.97 8 -6.94 8 -10 8 C-10 7.34 -10 6.68 -10 6 C-9.01 6 -8.02 6 -7 6 C-7 4.68 -7 3.36 -7 2 C-7.99 2 -8.98 2 -10 2 C-10 1.34 -10 0.68 -10 0 C-3.375 -1.125 -3.375 -1.125 0 0 Z " fill="#4CC6AF" transform="translate(314,124)"/>
<path d="M0 0 C0.93423645 3.01031744 1.04449911 3.86650268 0 7 C0.87914688 9.6569191 0.87914688 9.6569191 2 12 C1.34 12.66 0.68 13.32 0 14 C0 13.34 0 12.68 0 12 C-0.99 12 -1.98 12 -3 12 C-3.625 10.1875 -3.625 10.1875 -4 8 C-3.34 7.01 -2.68 6.02 -2 5 C-3.32 5 -4.64 5 -6 5 C-5.6875 3.0625 -5.6875 3.0625 -5 1 C-2 0 -2 0 0 0 Z " fill="#4B4E56" transform="translate(91,64)"/>
<path d="M0 0 C3 3.75 3 3.75 3 6 C3.54269531 5.69964844 4.08539063 5.39929688 4.64453125 5.08984375 C5.35996094 4.70957031 6.07539062 4.32929687 6.8125 3.9375 C7.52019531 3.55464844 8.22789063 3.17179687 8.95703125 2.77734375 C11 2 11 2 14 3 C13.34 3 12.68 3 12 3 C12 3.66 12 4.32 12 5 C11.34 5 10.68 5 10 5 C10 5.66 10 6.32 10 7 C6.38026598 8.31626692 3.90432869 9 0 9 C0 6.03 0 3.06 0 0 Z " fill="#1D77A8" transform="translate(116,118)"/>
<path d="M0 0 C-0.33 1.32 -0.66 2.64 -1 4 C-2.65 4 -4.3 4 -6 4 C-6.66 5.32 -7.32 6.64 -8 8 C-9.32 7.67 -10.64 7.34 -12 7 C-9.87654283 1.40179474 -5.8147806 -0.49840977 0 0 Z " fill="#199B99" transform="translate(98,80)"/>
<path d="M0 0 C6.93 0.495 6.93 0.495 14 1 C13.67 2.32 13.34 3.64 13 5 C9.7 4.67 6.4 4.34 3 4 C2.67 4.99 2.34 5.98 2 7 C2 5.68 2 4.36 2 3 C1.01 3 0.02 3 -1 3 C-0.67 2.01 -0.34 1.02 0 0 Z " fill="#42B89D" transform="translate(225,105)"/>
<path d="M0 0 C0.33 1.98 0.66 3.96 1 6 C-0.65 6.33 -2.3 6.66 -4 7 C-4.33 9.64 -4.66 12.28 -5 15 C-5.33 15 -5.66 15 -6 15 C-7 8.375 -7 8.375 -7 5 C-6.34 4.67 -5.68 4.34 -5 4 C-4.67 3.01 -4.34 2.02 -4 1 C-2 0 -2 0 0 0 Z " fill="#849E52" transform="translate(148,63)"/>
<path d="M0 0 C1.65 0 3.3 0 5 0 C5 1.65 5 3.3 5 5 C5.66 5 6.32 5 7 5 C7 4.34 7 3.68 7 3 C7.66 3.33 8.32 3.66 9 4 C8.67 5.98 8.34 7.96 8 10 C6.25 9.9375 6.25 9.9375 4 9 C1.99159505 6.29950956 0 3.44873267 0 0 Z " fill="#E61C6C" transform="translate(65,112)"/>
<path d="M0 0 C0.33 0 0.66 0 1 0 C1.16435547 0.90492187 1.16435547 0.90492187 1.33203125 1.828125 C2.50797128 7.93684987 2.50797128 7.93684987 6 13 C4.35 13.33 2.7 13.66 1 14 C-3.59225513 5.738041 -3.59225513 5.738041 -3 1 C-2.67 1.99 -2.34 2.98 -2 4 C-1.34 4 -0.68 4 0 4 C0 2.68 0 1.36 0 0 Z " fill="#EEF3F7" transform="translate(165,76)"/>
<path d="M0 0 C0 1.98 0 3.96 0 6 C-4.08443115 7.53166168 -7.79455657 6.63081652 -12 6 C-12 4.02 -12 2.04 -12 0 C-3.42857143 -1.28571429 -3.42857143 -1.28571429 0 0 Z M-11 1 C-11 2.32 -11 3.64 -11 5 C-8.36 5 -5.72 5 -3 5 C-3 3.68 -3 2.36 -3 1 C-5.64 1 -8.28 1 -11 1 Z " fill="#4EBAA5" transform="translate(220,107)"/>
<path d="M0 0 C1.98 0 3.96 0 6 0 C6.5534764 2.07553648 7 3.84365964 7 6 C6.34 6 5.68 6 5 6 C5 6.66 5 7.32 5 8 C4.01 7.67 3.02 7.34 2 7 C2 6.34 2 5.68 2 5 C1.01 5 0.02 5 -1 5 C-0.67 3.35 -0.34 1.7 0 0 Z " fill="#13A69A" transform="translate(95,88)"/>
<path d="M0 0 C0 0.66 0 1.32 0 2 C-1.11375 2.2475 -2.2275 2.495 -3.375 2.75 C-7.04615198 3.61005339 -7.04615198 3.61005339 -8.4375 6.125 C-8.623125 6.74375 -8.80875 7.3625 -9 8 C-9 6.68 -9 5.36 -9 4 C-9.99 4 -10.98 4 -12 4 C-12.33 5.32 -12.66 6.64 -13 8 C-13.6875 6.1875 -13.6875 6.1875 -14 4 C-10.85491045 -0.81013696 -5.1523638 -1.51540112 0 0 Z " fill="#1B9A82" transform="translate(157,83)"/>
<path d="M0 0 C2.4375 0.6875 2.4375 0.6875 5 2 C5.9375 4.5 5.9375 4.5 6 7 C5.34 7.66 4.68 8.32 4 9 C4.66 9.33 5.32 9.66 6 10 C5.67 10.99 5.34 11.98 5 13 C4.01 13 3.02 13 2 13 C0.89155081 9.67465243 1.15545644 7.37817425 2 4 C1.67 4 1.34 4 1 4 C-0.33568021 3.67619874 -1.66923011 3.34342449 -3 3 C-2.01 2.01 -1.02 1.02 0 0 Z " fill="#8AAF4F" transform="translate(149,68)"/>
<path d="M0 0 C0.99 0.33 1.98 0.66 3 1 C3.144375 1.763125 3.28875 2.52625 3.4375 3.3125 C3.9632594 6.08172908 3.9632594 6.08172908 5 9 C4.01 9 3.02 9 2 9 C1.67 9.66 1.34 10.32 1 11 C-0.32 10.67 -1.64 10.34 -3 10 C-3 7.36 -3 4.72 -3 2 C-2.67 2 -2.34 2 -2 2 C-2 3.65 -2 5.3 -2 7 C-1.34 7 -0.68 7 0 7 C0 4.69 0 2.38 0 0 Z " fill="#829C37" transform="translate(118,33)"/>
<path d="M0 0 C1.65 0 3.3 0 5 0 C5 0.66 5 1.32 5 2 C7.64 1.67 10.28 1.34 13 1 C13 2.65 13 4.3 13 6 C11 5 9 4 7 3 C6.71125 3.639375 6.4225 4.27875 6.125 4.9375 C5 7 5 7 3 8 C3 6.02 3 4.04 3 2 C2.01 2 1.02 2 0 2 C0 1.34 0 0.68 0 0 Z " fill="#C2824F" transform="translate(55,53)"/>
<path d="M0 0 C0.66 0.33 1.32 0.66 2 1 C1.67 1.99 1.34 2.98 1 4 C2.32 4 3.64 4 5 4 C4.34 5.32 3.68 6.64 3 8 C2.34 8 1.68 8 1 8 C1 8.66 1 9.32 1 10 C1.66 10 2.32 10 3 10 C3.33 10.99 3.66 11.98 4 13 C2.02 13 0.04 13 -2 13 C-1.814375 11.948125 -1.62875 10.89625 -1.4375 9.8125 C-1.04920669 6.42880118 -1.11752515 4.23574112 -2 1 C-1.34 0.67 -0.68 0.34 0 0 Z " fill="#BD844C" transform="translate(70,41)"/>
<path d="M0 0 C0.33 0 0.66 0 1 0 C1 2.31 1 4.62 1 7 C1.928125 7 2.85625 7 3.8125 7 C7 8 7 8 8.06640625 9.63671875 C9.71075759 13.80717505 10.33843227 17.48756979 10 22 C8.09681116 19.14521674 7.5380901 17.58058692 6.875 14.3125 C6.70742187 13.50425781 6.53984375 12.69601563 6.3671875 11.86328125 C6.24601562 11.24839844 6.12484375 10.63351563 6 10 C5.195625 9.855625 4.39125 9.71125 3.5625 9.5625 C1 9 1 9 0 8 C-0.14115161 5.32941149 -0.04247107 2.67567762 0 0 Z " fill="#2E92C0" transform="translate(67,82)"/>
<path d="M0 0 C2.31 0 4.62 0 7 0 C6.67 3.3 6.34 6.6 6 10 C5.01 10 4.02 10 3 10 C3 7.69 3 5.38 3 3 C2.01 3 1.02 3 0 3 C0 2.01 0 1.02 0 0 Z " fill="#B73D4E" transform="translate(101,71)"/>
<path d="M0 0 C4.875 2.625 4.875 2.625 6 6 C6.99 6.33 7.98 6.66 9 7 C8.01 7.99 7.02 8.98 6 10 C4 8.625 4 8.625 2 7 C2 6.34 2 5.68 2 5 C1.01 5 0.02 5 -1 5 C-0.67 3.35 -0.34 1.7 0 0 Z " fill="#334842" transform="translate(96,75)"/>
<path d="M0 0 C0.66 0.33 1.32 0.66 2 1 C2.45703125 2.77734375 2.45703125 2.77734375 2.8125 4.9375 C3.23647851 7.10688573 3.23647851 7.10688573 4 9 C6.47636012 10.37466625 6.47636012 10.37466625 9 11 C9.33 11.99 9.66 12.98 10 14 C8.68 14 7.36 14 6 14 C6 13.34 6 12.68 6 12 C4.35 12 2.7 12 1 12 C1 9.36 1 6.72 1 4 C-0.32 3.34 -1.64 2.68 -3 2 C-2.01 1.34 -1.02 0.68 0 0 Z " fill="#7C4130" transform="translate(98,56)"/>
<path d="M0 0 C0.66 1.32 1.32 2.64 2 4 C2.99 5.485 2.99 5.485 4 7 C4.33957563 11.07490752 4.31332486 12.53001271 2 16 C1.01 15.67 0.02 15.34 -1 15 C0.32 13.35 1.64 11.7 3 10 C1.35 9.67 -0.3 9.34 -2 9 C-1.34 6.03 -0.68 3.06 0 0 Z " fill="#464C44" transform="translate(138,85)"/>
<path d="M0 0 C0.66 0.99 1.32 1.98 2 3 C0 6 0 6 -2.3828125 6.73046875 C-3.74019531 6.95669922 -3.74019531 6.95669922 -5.125 7.1875 C-6.49011719 7.42533203 -6.49011719 7.42533203 -7.8828125 7.66796875 C-8.58148438 7.77753906 -9.28015625 7.88710938 -10 8 C-10 6 -10 6 -8.375 4 C-5.68682134 1.7362706 -3.36558109 0.91788575 0 0 Z " fill="#466265" transform="translate(76,53)"/>
<path d="M0 0 C-0.5625 1.875 -0.5625 1.875 -2 4 C-5.625 5.25 -5.625 5.25 -9 6 C-9.33 5.01 -9.66 4.02 -10 3 C-9.01 2.67 -8.02 2.34 -7 2 C-7 1.34 -7 0.68 -7 0 C-4.3333581 -1.33332095 -2.83319697 -0.67102033 0 0 Z " fill="#BC3564" transform="translate(141,95)"/>
<path d="M0 0 C-0.33 0.66 -0.66 1.32 -1 2 C-0.34 2 0.32 2 1 2 C1 2.99 1 3.98 1 5 C-0.32 5 -1.64 5 -3 5 C-3 4.34 -3 3.68 -3 3 C-3.99 2.67 -4.98 2.34 -6 2 C-6 2.99 -6 3.98 -6 5 C-5.34 5 -4.68 5 -4 5 C-4 5.66 -4 6.32 -4 7 C-5.65 7 -7.3 7 -9 7 C-9 6.34 -9 5.68 -9 5 C-8.34 5 -7.68 5 -7 5 C-7.33 3.68 -7.66 2.36 -8 1 C-2.25 -1.125 -2.25 -1.125 0 0 Z " fill="#E91C6A" transform="translate(146,55)"/>
<path d="M0 0 C0.99 0.99 1.98 1.98 3 3 C0.4345406 5.5654594 -1.47686668 5.54046087 -5 6 C-5.33 7.32 -5.66 8.64 -6 10 C-7.32 9.34 -8.64 8.68 -10 8 C-7.13463296 3.92236229 -4.56958375 1.97322935 0 0 Z " fill="#513056" transform="translate(91,101)"/>
<path d="M0 0 C0.66 0.33 1.32 0.66 2 1 C2 3.64 2 6.28 2 9 C1.01 9.495 1.01 9.495 0 10 C-0.99 9.34 -1.98 8.68 -3 8 C-2.67 7.34 -2.34 6.68 -2 6 C-2.99 6.33 -3.98 6.66 -5 7 C-4.67 6.01 -4.34 5.02 -4 4 C-2.68 4 -1.36 4 0 4 C0 2.68 0 1.36 0 0 Z " fill="#2A86B3" transform="translate(80,63)"/>
<path d="M0 0 C2.31 0.66 4.62 1.32 7 2 C6.34 2.66 5.68 3.32 5 4 C4.3574765 6.06874034 4.3574765 6.06874034 4 8 C4.99 8.33 5.98 8.66 7 9 C4.69 9.33 2.38 9.66 0 10 C0 9.34 0 8.68 0 8 C0.66 7.67 1.32 7.34 2 7 C2 5.68 2 4.36 2 3 C1.01 3 0.02 3 -1 3 C-0.67 2.01 -0.34 1.02 0 0 Z " fill="#51C7AE" transform="translate(171,123)"/>
<path d="M0 0 C0.66 0.33 1.32 0.66 2 1 C2 1.66 2 2.32 2 3 C2.94875 3.12375 3.8975 3.2475 4.875 3.375 C8 4 8 4 10 6 C3.07 5.505 3.07 5.505 -4 5 C-2 1 -2 1 0 0 Z " fill="#823429" transform="translate(92,107)"/>
<path d="M0 0 C0.66 0 1.32 0 2 0 C2 0.66 2 1.32 2 2 C2.99 2 3.98 2 5 2 C5.66 3.98 6.32 5.96 7 8 C6.01 8.33 5.02 8.66 4 9 C2.07182111 7.07182111 0.46380204 5.30026035 -1 3 C-0.67 2.01 -0.34 1.02 0 0 Z " fill="#1492CB" transform="translate(72,82)"/>
<path d="M0 0 C0.66 0.66 1.32 1.32 2 2 C2.66 2 3.32 2 4 2 C4.19456705 3.95764383 4.38044247 5.91615321 4.5625 7.875 C4.66691406 8.96554688 4.77132812 10.05609375 4.87890625 11.1796875 C5 14 5 14 4 16 C3.01 15.67 2.02 15.34 1 15 C1.33 14.67 1.66 14.34 2 14 C2.07205511 12.31391034 2.08386068 10.62499341 2.0625 8.9375 C2.04896484 7.55884766 2.04896484 7.55884766 2.03515625 6.15234375 C2.02355469 5.44207031 2.01195312 4.73179688 2 4 C0.35 4 -1.3 4 -3 4 C-2 2 -2 2 0 0 Z " fill="#CC8440" transform="translate(126,43)"/>
<path d="M0 0 C2.64 0 5.28 0 8 0 C8 1.32 8 2.64 8 4 C5.36 4.33 2.72 4.66 0 5 C0 3.35 0 1.7 0 0 Z " fill="#92C540" transform="translate(113,29)"/>
<path d="M0 0 C0.99 0.33 1.98 0.66 3 1 C3 1.66 3 2.32 3 3 C2.01 3.495 2.01 3.495 1 4 C0.59270772 6.32156597 0.25561323 8.6568787 0 11 C-0.33 9.68 -0.66 8.36 -1 7 C-1.99 7 -2.98 7 -4 7 C-4 5.35 -4 3.7 -4 2 C-3.01 2 -2.02 2 -1 2 C-0.67 1.34 -0.34 0.68 0 0 Z " fill="#327B71" transform="translate(113,108)"/>
<path d="M0 0 C2.9719385 1.12451727 5.33440687 2.22293791 8 4 C8.40843923 6.71203652 8.13336867 9.2437142 8 12 C7.01 12 6.02 12 5 12 C5 9.36 5 6.72 5 4 C4.360625 3.71125 3.72125 3.4225 3.0625 3.125 C1 2 1 2 0 0 Z " fill="#E02262" transform="translate(90,56)"/>
<path d="M0 0 C2.31 0 4.62 0 7 0 C7 0.66 7 1.32 7 2 C4 3 4 3 1 2 C1 2.66 1 3.32 1 4 C-0.134375 4.268125 -1.26875 4.53625 -2.4375 4.8125 C-4.2009375 5.4003125 -4.2009375 5.4003125 -6 6 C-6.33 6.99 -6.66 7.98 -7 9 C-7.33 8.01 -7.66 7.02 -8 6 C-7.01 5.67 -6.02 5.34 -5 5 C-5 4.34 -5 3.68 -5 3 C-3.68 3 -2.36 3 -1 3 C-0.67 2.01 -0.34 1.02 0 0 Z " fill="#A52255" transform="translate(141,50)"/>
<path d="M0 0 C2.31 0.33 4.62 0.66 7 1 C6.67 3.31 6.34 5.62 6 8 C5.34 8 4.68 8 4 8 C4 6.35 4 4.7 4 3 C2.35 3 0.7 3 -1 3 C-0.67 2.01 -0.34 1.02 0 0 Z " fill="#D81462" transform="translate(66,109)"/>
<path d="M0 0 C0.66 0.33 1.32 0.66 2 1 C1.401875 1.185625 0.80375 1.37125 0.1875 1.5625 C-3.09981799 3.72273753 -3.64854687 6.35107655 -5 10 C-6.32 9.01 -7.64 8.02 -9 7 C-3.51752022 1.21293801 -3.51752022 1.21293801 0 0 Z " fill="#3C3645" transform="translate(135,101)"/>
<path d="M0 0 C2.31 0 4.62 0 7 0 C7 0.66 7 1.32 7 2 C6.34 2 5.68 2 5 2 C5 3.65 5 5.3 5 7 C5.99 7 6.98 7 8 7 C7.67 7.66 7.34 8.32 7 9 C4.03 8.505 4.03 8.505 1 8 C1.66 7.34 2.32 6.68 3 6 C3 4.68 3 3.36 3 2 C2.01 2 1.02 2 0 2 C0 1.34 0 0.68 0 0 Z " fill="#4DCDB3" transform="translate(242,124)"/>
<path d="M0 0 C2.64 0.33 5.28 0.66 8 1 C8 2.98 8 4.96 8 7 C6.68 6.67 5.36 6.34 4 6 C4 5.34 4 4.68 4 4 C1.525 3.01 1.525 3.01 -1 2 C-0.67 1.34 -0.34 0.68 0 0 Z " fill="#849D4D" transform="translate(110,76)"/>
<path d="M0 0 C0 2.31 0 4.62 0 7 C-0.99 7.495 -0.99 7.495 -2 8 C-3.13350534 10.01669827 -3.13350534 10.01669827 -4 12 C-5.37553268 8.17907588 -4.81309902 4.91765889 -4 1 C-2 0 -2 0 0 0 Z " fill="#8A6330" transform="translate(112,69)"/>
<path d="M0 0 C0.66 0 1.32 0 2 0 C3.125 5.625 3.125 5.625 2 9 C2.99 9.33 3.98 9.66 5 10 C4.01 10.33 3.02 10.66 2 11 C1.34 10.67 0.68 10.34 0 10 C-0.44921875 7.96875 -0.44921875 7.96875 -0.6875 5.5 C-0.77386719 4.6853125 -0.86023438 3.870625 -0.94921875 3.03125 C-0.96597656 2.3609375 -0.98273438 1.690625 -1 1 C-0.67 0.67 -0.34 0.34 0 0 Z " fill="#238FC7" transform="translate(77,97)"/>
<path d="M0 0 C1.65 0 3.3 0 5 0 C5 0.66 5 1.32 5 2 C5.66 2 6.32 2 7 2 C7.33 2.66 7.66 3.32 8 4 C8.99 4.33 9.98 4.66 11 5 C11 6.32 11 7.64 11 9 C9 9 9 9 6.375 6.625 C4 4 4 4 4 2 C3.01 2.33 2.02 2.66 1 3 C0.67 2.01 0.34 1.02 0 0 Z " fill="#6E393F" transform="translate(93,72)"/>
<path d="M0 0 C1.32 0 2.64 0 4 0 C4 0.66 4 1.32 4 2 C3.34 2 2.68 2 2 2 C2.58803797 5.02419525 3.22678118 8.01758453 4 11 C3.34 11 2.68 11 2 11 C2 11.66 2 12.32 2 13 C1.34 12.67 0.68 12.34 0 12 C0 8.04 0 4.08 0 0 Z " fill="#4D5C58" transform="translate(51,54)"/>
<path d="M0 0 C-5.45126259 2.23891142 -10.13190493 3.47606294 -16 4 C-16.33 3.01 -16.66 2.02 -17 1 C-16.175 1.04125 -15.35 1.0825 -14.5 1.125 C-11.60465831 1.02159494 -9.55255739 0.69215536 -6.8125 -0.0625 C-3 -1 -3 -1 0 0 Z " fill="#624050" transform="translate(110,106)"/>
<path d="M0 0 C2 1 2 1 3 3 C2.34 3 1.68 3 1 3 C1 4.65 1 6.3 1 8 C0.34 8 -0.32 8 -1 8 C-1.33 8.66 -1.66 9.32 -2 10 C-2.33 7.03 -2.66 4.06 -3 1 C-2.01 0.67 -1.02 0.34 0 0 Z " fill="#7AA541" transform="translate(109,80)"/>
<path d="M0 0 C0 0.99 0 1.98 0 3 C0.99 3.33 1.98 3.66 3 4 C-1.51718381 5.36884358 -4.58774263 4.47075246 -9 3 C-9 2.67 -9 2.34 -9 2 C-2.25 0 -2.25 0 0 0 Z " fill="#8C9E4B" transform="translate(112,60)"/>
<path d="M0 0 C0.99 0 1.98 0 3 0 C3.33 2.64 3.66 5.28 4 8 C3.01 8.66 2.02 9.32 1 10 C0.01 9.67 -0.98 9.34 -2 9 C-1.34 9 -0.68 9 0 9 C0 6.03 0 3.06 0 0 Z " fill="#306F82" transform="translate(130,112)"/>
<path d="M0 0 C0.7425 0.37125 1.485 0.7425 2.25 1.125 C4.94283647 2.29515863 4.94283647 2.29515863 7.3125 1.125 C7.869375 0.75375 8.42625 0.3825 9 0 C9 1.32 9 2.64 9 4 C6.36 4.33 3.72 4.66 1 5 C0.67 3.35 0.34 1.7 0 0 Z " fill="#BD7C45" transform="translate(58,39)"/>
<path d="M0 0 C0.66 0.33 1.32 0.66 2 1 C1.67 1.99 1.34 2.98 1 4 C0.01 3.67 -0.98 3.34 -2 3 C-2 5.64 -2 8.28 -2 11 C-2.28875 10.38125 -2.5775 9.7625 -2.875 9.125 C-3.93720042 6.86674235 -3.93720042 6.86674235 -6 5 C-5.34 5 -4.68 5 -4 5 C-3.896875 4.360625 -3.79375 3.72125 -3.6875 3.0625 C-3.460625 2.381875 -3.23375 1.70125 -3 1 C-2.01 0.67 -1.02 0.34 0 0 Z " fill="#3A523E" transform="translate(111,107)"/>
<path d="M0 0 C0 0.99 0 1.98 0 3 C-3.22791555 5.1519437 -4.28400809 5.20086443 -8 5 C-7.1875 3.0625 -7.1875 3.0625 -6 1 C-3 0 -3 0 0 0 Z " fill="#C32864" transform="translate(92,105)"/>
<path d="M0 0 C0.99 0.33 1.98 0.66 3 1 C3.33 2.65 3.66 4.3 4 6 C2.02 6.33 0.04 6.66 -2 7 C-1.125 1.125 -1.125 1.125 0 0 Z " fill="#7B5345" transform="translate(53,82)"/>
<path d="M0 0 C2.97 0.495 2.97 0.495 6 1 C5.8125 2.875 5.8125 2.875 5 5 C2.4375 6.25 2.4375 6.25 0 7 C0 4.69 0 2.38 0 0 Z " fill="#94C63B" transform="translate(143,72)"/>
<path d="M0 0 C1.32 0 2.64 0 4 0 C3.49287967 3.71888239 2.88391785 6.73454239 1 10 C0.01 9.67 -0.98 9.34 -2 9 C-1.34 8.67 -0.68 8.34 0 8 C0 5.36 0 2.72 0 0 Z " fill="#B12561" transform="translate(73,114)"/>
<path d="M0 0 C5.66153846 1.47692308 5.66153846 1.47692308 7.375 4.125 C7.58125 4.74375 7.7875 5.3625 8 6 C6.35 6.33 4.7 6.66 3 7 C3 5.68 3 4.36 3 3 C1.68 3 0.36 3 -1 3 C-0.67 2.01 -0.34 1.02 0 0 Z " fill="#4EC8AD" transform="translate(287,105)"/>
<path d="M0 0 C2.125 0.9375 2.125 0.9375 4 2 C4 2.99 4 3.98 4 5 C4.66 5.33 5.32 5.66 6 6 C4.02 6.33 2.04 6.66 0 7 C0 5.68 0 4.36 0 3 C-0.66 2.34 -1.32 1.68 -2 1 C-1.34 0.67 -0.68 0.34 0 0 Z " fill="#2E645C" transform="translate(104,24)"/>
<path d="M0 0 C1.98 0.99 3.96 1.98 6 3 C6 3.66 6 4.32 6 5 C3.36 5 0.72 5 -2 5 C-2.33 4.01 -2.66 3.02 -3 2 C-2.01 2 -1.02 2 0 2 C0 1.34 0 0.68 0 0 Z " fill="#50C5A9" transform="translate(206,127)"/>
<path d="M0 0 C-0.33 0.99 -0.66 1.98 -1 3 C-1.721875 2.814375 -2.44375 2.62875 -3.1875 2.4375 C-6.12826973 1.98004693 -8.14103058 2.26483643 -11 3 C-11 2.01 -11 1.02 -11 0 C-6.98195309 -0.84098656 -3.98196457 -1.05404945 0 0 Z " fill="#722C4E" transform="translate(123,102)"/>
<path d="M0 0 C1.32 0.33 2.64 0.66 4 1 C3.67 2.65 3.34 4.3 3 6 C1.68 5.67 0.36 5.34 -1 5 C-1 2 -1 2 0 0 Z " fill="#BB3963" transform="translate(77,31)"/>
<path d="M0 0 C1.65 0.33 3.3 0.66 5 1 C4.67 1.66 4.34 2.32 4 3 C3.34 3 2.68 3 2 3 C2 3.99 2 4.98 2 6 C0.68 6.33 -0.64 6.66 -2 7 C-2 6.01 -2 5.02 -2 4 C-2.66 3.67 -3.32 3.34 -4 3 C-1 2 -1 2 0 2 C0 1.34 0 0.68 0 0 Z " fill="#1E5B5C" transform="translate(108,97)"/>
<path d="M0 0 C-0.33 2.97 -0.66 5.94 -1 9 C-1.66 9 -2.32 9 -3 9 C-3.33 6.36 -3.66 3.72 -4 1 C-1 0 -1 0 0 0 Z " fill="#F19435" transform="translate(130,85)"/>
<path d="M0 0 C1.32 0 2.64 0 4 0 C4 1.32 4 2.64 4 4 C4.66 4 5.32 4 6 4 C6 5.32 6 6.64 6 8 C5.01 8 4.02 8 3 8 C0 2.25 0 2.25 0 0 Z " fill="#AC2F53" transform="translate(91,64)"/>
<path d="M0 0 C0 0.33 0 0.66 0 1 C-1.98 1 -3.96 1 -6 1 C-6.66 2.65 -7.32 4.3 -8 6 C-8.66 6 -9.32 6 -10 6 C-10.33 5.01 -10.66 4.02 -11 3 C-7.46647659 -0.87004945 -5.02196482 -1.22155901 0 0 Z " fill="#59C2AE" transform="translate(225,124)"/>
<path d="M0 0 C2.475 0.495 2.475 0.495 5 1 C4.1875 3.9375 4.1875 3.9375 3 7 C2.01 7.33 1.02 7.66 0 8 C0 6.68 0 5.36 0 4 C0.66 4 1.32 4 2 4 C2 3.01 2 2.02 2 1 C1.34 0.67 0.68 0.34 0 0 Z " fill="#86B55D" transform="translate(139,110)"/>
<path d="M0 0 C-0.33 0.66 -0.66 1.32 -1 2 C-1.66 2 -2.32 2 -3 2 C-3.33 2.66 -3.66 3.32 -4 4 C-3.01 4.33 -2.02 4.66 -1 5 C-1.99 5.495 -1.99 5.495 -3 6 C-3.99 5.67 -4.98 5.34 -6 5 C-6 3.35 -6 1.7 -6 0 C-3.50907189 -1.24546405 -2.58919267 -0.7767578 0 0 Z " fill="#43BFA3" transform="translate(253,126)"/>
<path d="M0 0 C1.32 0.33 2.64 0.66 4 1 C4 1.66 4 2.32 4 3 C3.01 3.33 2.02 3.66 1 4 C0.67 4.99 0.34 5.98 0 7 C-0.99 6.67 -1.98 6.34 -3 6 C-2.01 4.02 -1.02 2.04 0 0 Z " fill="#52435C" transform="translate(76,118)"/>
<path d="M0 0 C0.33 1.32 0.66 2.64 1 4 C1.66 4 2.32 4 3 4 C3.33 3.34 3.66 2.68 4 2 C4.66 1.67 5.32 1.34 6 1 C6 2.32 6 3.64 6 5 C4.02 5.66 2.04 6.32 0 7 C-1.33332095 4.3333581 -0.67102033 2.83319697 0 0 Z " fill="#D17741" transform="translate(126,90)"/>
<path d="M0 0 C1.65 0 3.3 0 5 0 C5 1.32 5 2.64 5 4 C4.34 4 3.68 4 3 4 C2.67 4.99 2.34 5.98 2 7 C1.34 4.69 0.68 2.38 0 0 Z " fill="#EA1A71" transform="translate(50,72)"/>
<path d="M0 0 C0.99 0.33 1.98 0.66 3 1 C3 2.32 3 3.64 3 5 C4.32 5.33 5.64 5.66 7 6 C5.35 6.33 3.7 6.66 2 7 C1.01 5.02 0.02 3.04 -1 1 C-0.67 0.67 -0.34 0.34 0 0 Z " fill="#BB2F62" transform="translate(135,59)"/>
<path d="M0 0 C0.66 0.33 1.32 0.66 2 1 C2 1.66 2 2.32 2 3 C1.01 3.33 0.02 3.66 -1 4 C-1.33 4.99 -1.66 5.98 -2 7 C-2.99 6.67 -3.98 6.34 -5 6 C-5 5.01 -5 4.02 -5 3 C-2.625 1.25 -2.625 1.25 0 0 Z " fill="#45BAA2" transform="translate(190,123)"/>
<path d="M0 0 C0.66 1.32 1.32 2.64 2 4 C2.66 4 3.32 4 4 4 C3.67 4.99 3.34 5.98 3 7 C-0.14191424 5.46395304 -3.08596738 3.94268841 -6 2 C-4.02 1.34 -2.04 0.68 0 0 Z " fill="#208785" transform="translate(98,82)"/>
<path d="M0 0 C-0.33 1.65 -0.66 3.3 -1 5 C-2.98 5 -4.96 5 -7 5 C-6.34 4.67 -5.68 4.34 -5 4 C-4.67 3.01 -4.34 2.02 -4 1 C-2 0 -2 0 0 0 Z " fill="#7A5C46" transform="translate(148,63)"/>
<path d="M0 0 C0.99 0.33 1.98 0.66 3 1 C3 1.66 3 2.32 3 3 C3.99 3.33 4.98 3.66 6 4 C2.25 5.125 2.25 5.125 0 4 C-0.33 4.66 -0.66 5.32 -1 6 C-0.67 4.02 -0.34 2.04 0 0 Z " fill="#B85E7C" transform="translate(90,52)"/>
<path d="M0 0 C0.66 1.32 1.32 2.64 2 4 C2.66 4 3.32 4 4 4 C4 5.65 4 7.3 4 9 C3.01 8.67 2.02 8.34 1 8 C-0.35439668 5.29120665 -0.06501451 2.99066732 0 0 Z " fill="#DA8A42" transform="translate(116,50)"/>
<path d="M0 0 C0.99 0 1.98 0 3 0 C3 0.66 3 1.32 3 2 C3.99 2 4.98 2 6 2 C6 2.66 6 3.32 6 4 C4.02 4 2.04 4 0 4 C0 2.68 0 1.36 0 0 Z " fill="#57616F" transform="translate(120,106)"/>
<path d="M0 0 C0.66 0.33 1.32 0.66 2 1 C1.67 2.65 1.34 4.3 1 6 C0.01 6 -0.98 6 -2 6 C-2 4.35 -2 2.7 -2 1 C-1.34 0.67 -0.68 0.34 0 0 Z " fill="#C8296C" transform="translate(49,80)"/>
<path d="M0 0 C0.99 1.32 1.98 2.64 3 4 C1.35 4.33 -0.3 4.66 -2 5 C-2.33 6.32 -2.66 7.64 -3 9 C-3.33 8.01 -3.66 7.02 -4 6 C-3.67 5.34 -3.34 4.68 -3 4 C-2.34 4 -1.68 4 -1 4 C-0.67 2.68 -0.34 1.36 0 0 Z " fill="#CF235A" transform="translate(49,72)"/>
<path d="M0 0 C2.97 0.495 2.97 0.495 6 1 C5.34 2.65 4.68 4.3 4 6 C3.67 5.01 3.34 4.02 3 3 C2.01 3 1.02 3 0 3 C0 2.01 0 1.02 0 0 Z " fill="#E12866" transform="translate(101,71)"/>
<path d="M0 0 C1.65 0 3.3 0 5 0 C4.34 1.32 3.68 2.64 3 4 C1.68 4 0.36 4 -1 4 C-0.67 2.68 -0.34 1.36 0 0 Z " fill="#F5FBFF" transform="translate(297,57)"/>
<path d="M0 0 C0 1.65 0 3.3 0 5 C-2 4 -4 3 -6 2 C-6.33 2.66 -6.66 3.32 -7 4 C-7.33 3.01 -7.66 2.02 -8 1 C-1.125 0 -1.125 0 0 0 Z " fill="#B7783C" transform="translate(68,54)"/>
<path d="M0 0 C1.65 1.65 3.3 3.3 5 5 C2.525 6.485 2.525 6.485 0 8 C0 5.36 0 2.72 0 0 Z " fill="#36D5AE" transform="translate(337,123)"/>
<path d="M0 0 C0.66 0 1.32 0 2 0 C2 0.66 2 1.32 2 2 C3.32 1.67 4.64 1.34 6 1 C6 1.99 6 2.98 6 4 C4.02 4 2.04 4 0 4 C0 2.68 0 1.36 0 0 Z " fill="#48C4AD" transform="translate(236,110)"/>
<path d="M0 0 C2.97 0.495 2.97 0.495 6 1 C5.67 2.98 5.34 4.96 5 7 C3.68 7.33 2.36 7.66 1 8 C2.32 6.02 3.64 4.04 5 2 C3.35 1.67 1.7 1.34 0 1 C0 0.67 0 0.34 0 0 Z " fill="#55394C" transform="translate(136,93)"/>
<path d="M0 0 C2.4375 0.6875 2.4375 0.6875 5 2 C5.8125 4.625 5.8125 4.625 6 7 C5.443125 6.319375 4.88625 5.63875 4.3125 4.9375 C3.549375 4.298125 2.78625 3.65875 2 3 C-0.70705512 3.14025199 -0.70705512 3.14025199 -3 4 C-2.01 2.68 -1.02 1.36 0 0 Z " fill="#8EAE5D" transform="translate(149,68)"/>
<path d="M0 0 C1.32 0 2.64 0 4 0 C4 1.65 4 3.3 4 5 C3.01 5 2.02 5 1 5 C0.34 3.68 -0.32 2.36 -1 1 C-0.67 0.67 -0.34 0.34 0 0 Z " fill="#1E95CF" transform="translate(103,35)"/>
<path d="M0 0 C1.98 0.99 3.96 1.98 6 3 C6 3.66 6 4.32 6 5 C3.36 5 0.72 5 -2 5 C-1.01 4.67 -0.02 4.34 1 4 C0.67 2.68 0.34 1.36 0 0 Z " fill="#55C5AF" transform="translate(276,127)"/>
<path d="M0 0 C0.99 0.99 1.98 1.98 3 3 C0.03 3 -2.94 3 -6 3 C-6 2.34 -6 1.68 -6 1 C-3.1875 0.3125 -3.1875 0.3125 0 0 Z " fill="#50CBAD" transform="translate(230,111)"/>
<path d="M0 0 C1.32 0 2.64 0 4 0 C3.67 1.32 3.34 2.64 3 4 C1.68 4.33 0.36 4.66 -1 5 C-0.67 3.35 -0.34 1.7 0 0 Z " fill="#05ACA5" transform="translate(95,88)"/>
<path d="M0 0 C0 0.99 0 1.98 0 3 C-2.875 3.125 -2.875 3.125 -6 3 C-6.66 2.34 -7.32 1.68 -8 1 C-5.10765685 0.17361624 -3.11257569 0 0 0 Z " fill="#74A63B" transform="translate(151,79)"/>
<path d="M0 0 C1.98 0.495 1.98 0.495 4 1 C4.33 2.98 4.66 4.96 5 7 C4.34 5.68 3.68 4.36 3 3 C1.68 3.33 0.36 3.66 -1 4 C-0.67 2.68 -0.34 1.36 0 0 Z " fill="#A63564" transform="translate(53,65)"/>
<path d="M0 0 C1.32 0 2.64 0 4 0 C3.34 1.32 2.68 2.64 2 4 C0.68 4 -0.64 4 -2 4 C-1.34 2.68 -0.68 1.36 0 0 Z " fill="#F4F9FE" transform="translate(266,57)"/>
<path d="M0 0 C0.66 0.33 1.32 0.66 2 1 C2.59355614 3.64860427 2.74209269 6.29197322 3 9 C2.34 8.67 1.68 8.34 1 8 C1 6.68 1 5.36 1 4 C-0.32 3.34 -1.64 2.68 -3 2 C-2.01 1.34 -1.02 0.68 0 0 Z " fill="#764E54" transform="translate(98,56)"/>
<path d="M0 0 C0.66 0.99 1.32 1.98 2 3 C1.01 4.485 1.01 4.485 0 6 C-1.32 5.34 -2.64 4.68 -4 4 C-2.68 2.68 -1.36 1.36 0 0 Z " fill="#6A7F8A" transform="translate(76,53)"/>
<path d="M0 0 C-0.33 1.98 -0.66 3.96 -1 6 C-1.99 5.67 -2.98 5.34 -4 5 C-3.34 4.67 -2.68 4.34 -2 4 C-2 3.34 -2 2.68 -2 2 C-3.32 1.67 -4.64 1.34 -6 1 C-3 0 -3 0 0 0 Z " fill="#569978" transform="translate(113,54)"/>
<path d="M0 0 C0.66 0.33 1.32 0.66 2 1 C2 1.99 2 2.98 2 4 C1.34 4 0.68 4 0 4 C0 4.66 0 5.32 0 6 C-0.99 6 -1.98 6 -3 6 C-1.125 1.125 -1.125 1.125 0 0 Z " fill="#767788" transform="translate(141,43)"/>
<path d="M0 0 C0.75 1.75 0.75 1.75 1 4 C-0.9375 6.25 -0.9375 6.25 -3 8 C-3.66 7.67 -4.32 7.34 -5 7 C-4.01 6.67 -3.02 6.34 -2 6 C-1.855625 5.195625 -1.71125 4.39125 -1.5625 3.5625 C-1 1 -1 1 0 0 Z " fill="#AB764D" transform="translate(140,39)"/>
<path d="M0 0 C0.66 0.33 1.32 0.66 2 1 C2 1.66 2 2.32 2 3 C2.66 3 3.32 3 4 3 C3.67 3.99 3.34 4.98 3 6 C0.9375 6.6875 0.9375 6.6875 -1 7 C-1 6.01 -1 5.02 -1 4 C-0.34 4 0.32 4 1 4 C0.67 2.68 0.34 1.36 0 0 Z " fill="#128580" transform="translate(101,90)"/>
<path d="M0 0 C0.66 0.66 1.32 1.32 2 2 C1.34 2 0.68 2 0 2 C0 2.99 0 3.98 0 5 C0.99 5 1.98 5 3 5 C2.67 5.99 2.34 6.98 2 8 C1.01 7.67 0.02 7.34 -1 7 C-1.04254356 5.00045254 -1.04080783 2.99958364 -1 1 C-0.67 0.67 -0.34 0.34 0 0 Z " fill="#B6294F" transform="translate(101,69)"/>
<path d="M0 0 C1.875 0.25 1.875 0.25 4 1 C5.25 3.0625 5.25 3.0625 6 5 C4.35 5 2.7 5 1 5 C1.33 3.68 1.66 2.36 2 1 C1.34 0.67 0.68 0.34 0 0 Z " fill="#DC822D" transform="translate(120,70)"/>
<path d="M0 0 C1.485 0.99 1.485 0.99 3 2 C2.67 2.99 2.34 3.98 2 5 C1.01 5 0.02 5 -1 5 C-0.67 3.35 -0.34 1.7 0 0 Z " fill="#BB8862" transform="translate(60,76)"/>
<path d="M0 0 C0.99 0.495 0.99 0.495 2 1 C1.34 1.66 0.68 2.32 0 3 C0 2.01 0 1.02 0 0 Z " fill="#756A75" transform="translate(57,76)"/>
<path d="M0 0 C0.99 0.33 1.98 0.66 3 1 C2.01 1 1.02 1 0 1 C0 0.67 0 0.34 0 0 Z " fill="#BEB8B8" transform="translate(73,49)"/>
<path d="M0 0 C0.66 0 1.32 0 2 0 C1.67 0.66 1.34 1.32 1 2 C0.67 1.34 0.34 0.68 0 0 Z " fill="#86796F" transform="translate(117,75)"/>
<path d="M0 0 C0.66 0 1.32 0 2 0 C1.67 0.66 1.34 1.32 1 2 C0.67 1.34 0.34 0.68 0 0 Z " fill="#1C1C1C" transform="translate(138,67)"/>
<path d="M0 0 C0.33 0.66 0.66 1.32 1 2 C0.34 1.67 -0.32 1.34 -1 1 C-0.67 0.67 -0.34 0.34 0 0 Z " fill="#B5C8AC" transform="translate(123,26)"/>
<path d="M0 0 C0.66 0 1.32 0 2 0 C1.67 0.66 1.34 1.32 1 2 C0.67 1.34 0.34 0.68 0 0 Z " fill="#BACBC4" transform="translate(111,26)"/>
<path d="" fill="#E5F3E3" transform="translate(0,0)"/>
<path d="" fill="#FFFFFF" transform="translate(0,0)"/>
<path d="" fill="#BF80BF" transform="translate(0,0)"/>
</svg>
