<?xml version="1.0" encoding="UTF-8"?>
<svg version="1.1" xmlns="http://www.w3.org/2000/svg" width="500" height="137">
<path d="M0 0 C1.4216868 4.26506039 -0.34613318 7.20037743 -1.9375 11.1875 C-2.37352539 12.31188477 -2.37352539 12.31188477 -2.81835938 13.45898438 C-3.53725036 15.30924477 -4.26754653 17.15506648 -5 19 C-7.97 19.33 -10.94 19.66 -14 20 C-13.04222656 20.18433594 -12.08445312 20.36867188 -11.09765625 20.55859375 C3.68494303 23.67200396 19.75673785 30.42931727 30 42 C30 46 30 46 28.3046875 48.04296875 C11.02364883 63.29584693 -10.11771593 75.14798705 -33.65795898 75.06518555 C-41.30446643 74.75386413 -41.30446643 74.75386413 -47.53125 78.5 C-49.05408043 81.31579966 -50.16165066 83.9158906 -51 87 C-51.66 86.67 -52.32 86.34 -53 86 C-50.69 80.06 -48.38 74.12 -46 68 C-42.37 67.67 -38.74 67.34 -35 67 C-36.30710937 66.76216797 -36.30710937 66.76216797 -37.640625 66.51953125 C-54.72285883 63.1733361 -69.22269806 55.86463751 -82 44 C-75.65798573 30.20911049 -56.40163 21.5840125 -43 16 C-30.82683563 11.61258867 -18.80286978 11 -6 11 C-4.02 7.37 -2.04 3.74 0 0 Z M-46.8125 27.25 C-47.85019531 27.85328125 -48.88789062 28.4565625 -49.95703125 29.078125 C-52.83392602 30.89511117 -55.46400192 32.7311958 -58 35 C-58 35.66 -58 36.32 -58 37 C-58.66 37 -59.32 37 -60 37 C-61.38938077 38.96147874 -62.7260411 40.96166576 -64 43 C-58.27257888 51.36355203 -51.19378724 58.58568197 -41 61 C-41.63228516 60.09121094 -41.63228516 60.09121094 -42.27734375 59.1640625 C-46.17771766 53.19878476 -48.54012671 48.22850423 -48 41 C-47.42467244 38.5729559 -46.70456839 36.32652368 -45.7890625 34.0078125 C-44.94005576 32.00402982 -44.94005576 32.00402982 -44.5234375 29.8125 C-44 28 -44 28 -42 26.875 C-41.34 26.58625 -40.68 26.2975 -40 26 C-39.67 25.34 -39.34 24.68 -39 24 C-42.11974756 24 -44.14848559 25.68641078 -46.8125 27.25 Z M-9 26 C-8.65066406 26.54269531 -8.30132812 27.08539063 -7.94140625 27.64453125 C-7.48636719 28.35996094 -7.03132813 29.07539062 -6.5625 29.8125 C-6.11003906 30.52019531 -5.65757813 31.22789063 -5.19140625 31.95703125 C-1.96563268 37.4884397 -2.45770176 43.80021204 -3 50 C-4.4345498 54.5309048 -6.96542033 58.35850439 -10 62 C-0.55101539 58.44837117 6.16141514 52.27509027 13 45 C8.09540081 36.51792847 1.7554165 30.51036608 -7 26 C-7.66 26 -8.32 26 -9 26 Z M-38.4375 34.5625 C-40.65808657 39.44779046 -40.75542291 43.7199086 -40 49 C-37.88193186 53.85390614 -34.95245744 56.26254688 -30.21484375 58.37109375 C-24.8707498 59.88855253 -20.45167302 58.75271934 -15.625 56.25 C-12.04965663 53.18541997 -10.27555956 51.22488833 -9.68359375 46.4453125 C-9.49322384 41.91328046 -9.66893959 38.72833291 -11.5625 34.5625 C-15.47694431 30.44731495 -19.20428884 27.83695995 -25 27.5 C-30.79571116 27.83695995 -34.52305569 30.44731495 -38.4375 34.5625 Z " fill="#00000" transform="translate(82,28)"/>
<path d="M0 0 C0.59554687 0.54398438 1.19109375 1.08796875 1.8046875 1.6484375 C2.40667969 2.07511719 3.00867188 2.50179688 3.62890625 2.94140625 C4.8046875 4.6484375 4.8046875 4.6484375 4.44140625 7.78515625 C4.12816406 8.95691406 3.81492187 10.12867188 3.4921875 11.3359375 C3.18667969 12.51542969 2.88117188 13.69492187 2.56640625 14.91015625 C2.31503906 15.81378906 2.06367188 16.71742187 1.8046875 17.6484375 C-1.93059152 16.40334449 -2.12588891 15.40674765 -3.9453125 12.0234375 C-9.0857006 3.14803834 -15.98233802 -2.93540576 -25.5703125 -6.6640625 C-35.68673525 -8.5826944 -44.13028906 -6.99057657 -53.0078125 -1.6640625 C-61.35552246 7.16065946 -64.1223827 16.96686837 -66.1953125 28.6484375 C-65.64746094 28.4930249 -65.09960938 28.3376123 -64.53515625 28.17749023 C-61.9254988 27.587431 -59.42713744 27.36853595 -56.7578125 27.18359375 C-55.16646484 27.06661133 -55.16646484 27.06661133 -53.54296875 26.94726562 C-51.34256669 26.79192802 -49.14204794 26.63823316 -46.94140625 26.48632812 C-40.49218472 26.00903917 -34.2092919 25.24120407 -27.8515625 24.04858398 C-25.1953125 23.6484375 -25.1953125 23.6484375 -20.1953125 23.6484375 C-20.1953125 27.2784375 -20.1953125 30.9084375 -20.1953125 34.6484375 C-25.95181482 34.82759792 -31.33046766 34.11614314 -37.0078125 33.2109375 C-46.73200997 31.73009962 -56.37112079 30.99630265 -66.1953125 30.6484375 C-64.43030389 43.59183395 -61.4714647 57.11414193 -51.19921875 66.19140625 C-42.11333784 72.79770953 -33.57187072 75.77175496 -22.3828125 75.6875 C-21.40699219 75.68186035 -20.43117187 75.6762207 -19.42578125 75.67041016 C-18.68972656 75.66315918 -17.95367187 75.6559082 -17.1953125 75.6484375 C-17.14442156 68.6741855 -17.10949886 61.69998176 -17.08544922 54.72558594 C-17.0754186 52.35512502 -17.0617909 49.9846764 -17.04443359 47.61425781 C-17.02005607 44.19853677 -17.00879971 40.78297995 -17 37.3671875 C-16.98967743 36.31478882 -16.97935486 35.26239014 -16.96871948 34.17810059 C-16.9678327 28.3052312 -17.49386454 23.27675671 -19.1953125 17.6484375 C-15.2353125 17.6484375 -11.2753125 17.6484375 -7.1953125 17.6484375 C-6.7003125 29.0334375 -6.7003125 29.0334375 -6.1953125 40.6484375 C-5.6796875 39.0190625 -5.1640625 37.3896875 -4.6328125 35.7109375 C-2.10738035 28.7704768 1.62842187 23.56001433 7.0546875 18.5859375 C12.48287351 16.73541954 18.4172429 16.68330032 23.7421875 18.8359375 C29.57322629 23.96018371 31.77184772 29.08802859 32.8046875 36.6484375 C32.9701016 39.63986098 33.01215859 42.62957344 33.05078125 45.625 C33.08369395 47.36458885 33.116906 49.10417206 33.15039062 50.84375 C33.19791245 53.56702127 33.24242889 56.29026558 33.28149414 59.01367188 C33.32119272 61.65517249 33.3727082 64.29623899 33.42578125 66.9375 C33.4341954 67.75110992 33.44260956 68.56471985 33.45127869 69.40298462 C33.54261845 73.58051437 33.89355282 75.82616815 35.8046875 79.6484375 C30.5246875 79.6484375 25.2446875 79.6484375 19.8046875 79.6484375 C20.4646875 77.6684375 21.1246875 75.6884375 21.8046875 73.6484375 C22.09618493 71.57979534 22.09618493 71.57979534 22.06347656 69.62182617 C22.07293304 68.52489693 22.07293304 68.52489693 22.08258057 67.4058075 C22.0785321 66.63380508 22.07448364 65.86180267 22.0703125 65.06640625 C22.07222595 64.25279129 22.0741394 63.43917633 22.07611084 62.60090637 C22.07746672 60.88554575 22.07381214 59.17017466 22.06542969 57.45483398 C22.05476329 54.85441521 22.06532365 52.25469378 22.078125 49.65429688 C22.07680249 47.97916516 22.0742382 46.30403388 22.0703125 44.62890625 C22.07436096 43.86297653 22.07840942 43.09704681 22.08258057 42.3079071 C22.02942739 36.06253602 21.37738 29.7938225 18.5546875 24.1484375 C15.95612952 21.92110209 14.2128339 21.6484375 10.8046875 21.6484375 C4.67700391 24.64975191 1.21164534 29.22597605 -1.32421875 35.39453125 C-5.17801887 46.78528364 -6.35617153 58.67784485 -6.1953125 70.6484375 C1.68526608 64.85723422 5.21068638 57.53886133 8.8046875 48.6484375 C9.4646875 48.6484375 10.1246875 48.6484375 10.8046875 48.6484375 C9.31731426 58.01888891 5.83593221 64.38448594 -1.6328125 70.3359375 C-2.33277344 70.83480469 -3.03273438 71.33367187 -3.75390625 71.84765625 C-4.22957031 72.44191406 -4.70523438 73.03617187 -5.1953125 73.6484375 C-4.93057207 75.65866724 -4.60128531 77.66190857 -4.1953125 79.6484375 C-8.38968145 79.86864573 -12.58434755 80.06479474 -16.78076172 80.24047852 C-18.2026033 80.30318324 -19.62419086 80.37200439 -21.04541016 80.44750977 C-35.93074132 81.23011892 -49.4343246 79.10974833 -61.3828125 69.5234375 C-71.18083482 60.39977299 -75.96315666 48.20935152 -76.4453125 35.0234375 C-76.26063438 21.37777658 -70.81773374 10.73388821 -61.65234375 0.9453125 C-44.33961024 -15.23892805 -17.94836394 -14.96825823 0 0 Z " fill="#00000" transform="translate(191.1953125,25.3515625)"/>
<path d="M0 0 C3.96 0 7.92 0 12 0 C12.33 7.59 12.66 15.18 13 23 C14.32 19.7 15.64 16.4 17 13 C19.93213286 7.48881834 23.13000942 2.5473544 29 0 C33.91198162 -0.62305372 38.314366 -0.68142651 42.9375 1.1875 C48.76831722 6.3115515 50.96847581 11.44050105 52 19 C52.1879442 22.18353708 52.25486864 25.366487 52.31640625 28.5546875 C52.33718735 29.45623566 52.35796844 30.35778381 52.37937927 31.28665161 C52.4444458 34.1493614 52.50355914 37.01215819 52.5625 39.875 C52.60572607 41.82292544 52.64934164 43.77084229 52.69335938 45.71875 C52.80008289 50.47907889 52.90146964 55.23949476 53 60 C53.66 60 54.32 60 55 60 C55 60.66 55 61.32 55 62 C49.72 62 44.44 62 39 62 C39.66 60.02 40.32 58.04 41 56 C41.29149743 53.93135784 41.29149743 53.93135784 41.25878906 51.97338867 C41.26509338 51.24210251 41.27139771 50.51081635 41.27789307 49.75737 C41.2738446 48.98536758 41.26979614 48.21336517 41.265625 47.41796875 C41.26753845 46.60435379 41.2694519 45.79073883 41.27142334 44.95246887 C41.27277922 43.23710825 41.26912464 41.52173716 41.26074219 39.80639648 C41.25007579 37.20597771 41.26063615 34.60625628 41.2734375 32.00585938 C41.27211499 30.33072766 41.2695507 28.65559638 41.265625 26.98046875 C41.26967346 26.21453903 41.27372192 25.44860931 41.27789307 24.6594696 C41.22473989 18.41409852 40.5726925 12.145385 37.75 6.5 C35.15144202 4.27266459 33.4081464 4 30 4 C23.87231641 7.00131441 20.40695784 11.57753855 17.87109375 17.74609375 C13.16000631 31.67074702 10.94195735 47.79685073 15 62 C10.05 62 5.1 62 0 62 C0.66 59.69 1.32 57.38 2 55 C2.29257031 52.45882985 2.29257031 52.45882985 2.25878906 50.01782227 C2.26824554 48.64588463 2.26824554 48.64588463 2.27789307 47.24623108 C2.2738446 46.27938889 2.26979614 45.31254669 2.265625 44.31640625 C2.26753845 43.30207016 2.2694519 42.28773407 2.27142334 41.24266052 C2.27277949 39.10537466 2.26912301 36.96808041 2.26074219 34.83081055 C2.25004592 31.57646998 2.26065134 28.32268279 2.2734375 25.06835938 C2.27211559 22.98437379 2.26955254 20.90038855 2.265625 18.81640625 C2.26967346 17.85158829 2.27372192 16.88677032 2.27789307 15.89271545 C2.23917001 10.25544849 1.60077617 5.41076652 0 0 Z " fill="#00000" transform="translate(433,43)"/>
<path d="M0 0 C3.53666925 1.81515407 5.69027537 3.07082611 7 7 C6.51171875 10.1015625 6.51171875 10.1015625 5.6875 13.625 C5.42324219 14.79289062 5.15898437 15.96078125 4.88671875 17.1640625 C4.59410156 18.09992188 4.30148437 19.03578125 4 20 C3.01 20.495 3.01 20.495 2 21 C1.78085937 20.43152344 1.56171875 19.86304687 1.3359375 19.27734375 C-1.70321816 11.87712325 -5.67554302 5.4116669 -13.0078125 1.6640625 C-17.01169928 0.32943357 -20.8696008 0.19764205 -25 1 C-28.56781839 3.42611651 -29.7463865 4.7826552 -30.625 9 C-29.76813102 13.11297112 -28.28207365 14.40169169 -25 17 C-20.62674166 19.73707393 -16.03193619 21.34433826 -11.125 22.875 C-3.87593437 25.24241637 3.7100451 27.95178499 7.6875 34.875 C9.38744734 39.09667016 9.39027772 42.6856543 8 47 C4.60324797 53.41608716 0.17701073 57.47975914 -6.625 59.8125 C-18.02028249 62.77629545 -29.61171657 61.20039451 -39.87890625 55.36328125 C-40.92884766 54.68845703 -40.92884766 54.68845703 -42 54 C-41.5547115 48.72684667 -40.91626837 43.98229776 -39 39 C-38.34 39 -37.68 39 -37 39 C-36.62875 40.010625 -36.2575 41.02125 -35.875 42.0625 C-33.48773761 47.58794769 -30.07398858 51.73021107 -24.9375 54.875 C-17.39109241 57.76511355 -10.52888491 57.68349277 -2.95703125 54.91015625 C-0.32519529 53.68616867 0.85001114 52.68330734 2 50 C2.58333333 47 2.58333333 47 2 44 C-0.66888169 40.79127633 -3.0014718 39.34688815 -6.9375 38.0625 C-7.90171875 37.72992188 -8.8659375 37.39734375 -9.859375 37.0546875 C-12.01557808 36.33058945 -14.17183073 35.60663898 -16.328125 34.8828125 C-24.27267478 32.05603083 -30.87644724 28.9456252 -35.5 21.625 C-36.53455518 16.19358532 -36.97581268 11.20142872 -34.3125 6.1875 C-25.91676969 -5.38499313 -12.33785282 -5.17181752 0 0 Z " fill="#00000" transform="translate(354,46)"/>
<path d="M0 0 C7.13518957 5.95493265 12.13337347 12.45935898 13.0390625 21.9375 C13.14137119 31.71821066 11.98715277 38.54274803 6.515625 46.671875 C-0.9254419 53.94758486 -8.16054142 57.40580754 -18.609375 57.796875 C-27.91486633 57.6154606 -34.78571212 54.732429 -41.54296875 48.34375 C-48.1912991 41.05871986 -50.83494397 33.16465605 -50.60546875 23.32421875 C-49.66015329 14.433467 -45.92324053 7.35996223 -39.296875 1.421875 C-27.76332757 -7.63854703 -12.23888744 -8.4090315 0 0 Z M-36.296875 4.421875 C-41.40771064 11.04703232 -41.80511582 19.65480138 -40.83984375 27.68359375 C-38.67262911 38.6132158 -33.07208038 46.73011878 -24.296875 53.421875 C-19.55304917 56.14957485 -14.4277622 56.24424687 -9.21484375 54.875 C-2.90304376 52.31648834 -0.08112758 47.4335484 2.703125 41.421875 C5.54937183 32.96991034 4.34211183 22.95661194 0.96484375 14.88671875 C-2.90023265 7.33605866 -8.5448275 0.5127759 -16.421875 -2.953125 C-24.7383739 -4.76105954 -30.7653843 -2.03153081 -36.296875 4.421875 Z " fill="#00000" transform="translate(416.296875,47.578125)"/>
<path d="M0 0 C5.28 0 10.56 0 16 0 C16 2.31 16 4.62 16 7 C16.53959168 9.29789575 16.53959168 9.29789575 17.45288086 11.34301758 C17.92853737 12.50375542 17.92853737 12.50375542 18.4138031 13.6879425 C18.76064651 14.49861679 19.10748993 15.30929108 19.46484375 16.14453125 C19.8176088 16.99552902 20.17037384 17.84652679 20.53382874 18.72331238 C21.65688861 21.4246772 22.7969531 24.11847863 23.9375 26.8125 C24.70098568 28.64211287 25.4633673 30.47218687 26.22460938 32.30273438 C29.43425002 40.23155761 29.43425002 40.23155761 33 48 C35.13049395 42.88222871 37.24792235 37.75931389 39.35375977 32.63134766 C40.07095157 30.8899885 40.79160541 29.15005081 41.51586914 27.41162109 C42.56023324 24.90313472 43.59177024 22.3896893 44.62109375 19.875 C44.94403915 19.10696045 45.26698456 18.3389209 45.59971619 17.54760742 C47.58691611 12.64861387 48.5579591 8.27310332 49 3 C48.34 2.67 47.68 2.34 47 2 C47 1.34 47 0.68 47 0 C50.96 0 54.92 0 59 0 C58 3 58 3 56.1159668 4.85522461 C49.26943917 11.79496676 46.15227367 23.06247157 42.4753418 32.02075195 C41.67715713 33.96266327 40.86925643 35.90034213 40.06054688 37.83789062 C39.54369344 39.08830316 39.02739631 40.33894582 38.51171875 41.58984375 C38.05240967 42.70222412 37.59310059 43.81460449 37.11987305 44.96069336 C35.32243312 49.83889907 34.60216901 52.89381296 36.4375 57.8125 C37.2109375 59.8853125 37.2109375 59.8853125 38 62 C34.37 62 30.74 62 27 62 C26.45585449 60.66936523 25.91170898 59.33873047 25.35107422 57.96777344 C23.30935424 52.97854769 21.26151073 47.99185391 19.21191406 43.00585938 C18.3297367 40.85744495 17.44916806 38.70836917 16.5703125 36.55859375 C9.8324306 20.02858964 9.8324306 20.02858964 2 4 C1.34 2.68 0.68 1.36 0 0 Z " fill="#00000" transform="translate(230,43)"/>
<path d="M0 0 C0.01213028 0.98812683 0.01213028 0.98812683 0.02450562 1.99621582 C0.11080457 8.87494663 0.21031858 15.75339766 0.31738281 22.63183594 C0.35558021 25.19624113 0.39044894 27.76069821 0.421875 30.32519531 C0.46772602 34.01906839 0.52568817 37.71258709 0.5859375 41.40625 C0.59748871 42.5461438 0.60903992 43.6860376 0.62094116 44.86047363 C0.73207909 50.90416872 1.24392245 56.20802493 3 62 C-1.95 62 -6.9 62 -12 62 C-11.34 59.69 -10.68 57.38 -10 55 C-9.70819616 52.55223419 -9.70819616 52.55223419 -9.74121094 50.22973633 C-9.73490662 49.36226273 -9.72860229 48.49478912 -9.72210693 47.60102844 C-9.7261554 46.68725937 -9.73020386 45.7734903 -9.734375 44.83203125 C-9.73246155 43.8747966 -9.7305481 42.91756195 -9.72857666 41.93132019 C-9.7272216 39.91848486 -9.7308704 37.90564058 -9.73925781 35.89282227 C-9.7500024 32.81181308 -9.73932125 29.73138225 -9.7265625 26.65039062 C-9.72788352 24.69010288 -9.73044473 22.7298155 -9.734375 20.76953125 C-9.73032654 19.84968948 -9.72627808 18.92984772 -9.72210693 17.98213196 C-9.72841125 17.12411484 -9.73471558 16.26609772 -9.74121094 15.38208008 C-9.74280212 14.63042068 -9.74439331 13.87876129 -9.74603271 13.10432434 C-10.0350981 10.70918386 -10.90452767 9.1307817 -12 7 C-12 6.01 -12 5.02 -12 4 C-10.18821242 3.33139964 -8.37554984 2.66516988 -6.5625 2 C-5.55316406 1.62875 -4.54382813 1.2575 -3.50390625 0.875 C-1 0 -1 0 0 0 Z " fill="#00000" transform="translate(305,43)"/>
<path d="M0 0 C2.30461651 2.07415486 2.8947981 3.47399051 3.5 6.5 C3 9 3 9 0.8125 11.375 C-2 13 -2 13 -4.625 12.9375 C-8.57241379 11.37931034 -8.57241379 11.37931034 -10 9 C-9.875 5.4375 -9.875 5.4375 -9 2 C-5.52957297 -0.31361802 -4.08165827 -0.51020728 0 0 Z " fill="#00000" transform="translate(303,21)"/>
<path d="M0 0 C3.4375 0.8125 3.4375 0.8125 5.4375 3.8125 C5.29320362 7.27561301 5.03512717 9.15084135 2.6875 11.75 C0.4375 12.8125 0.4375 12.8125 -2.125 12.6875 C-6.09191176 11.26348039 -6.09191176 11.26348039 -7.5625 8.8125 C-7.4375 5.25 -7.4375 5.25 -6.5625 1.8125 C-3.5625 -0.1875 -3.5625 -0.1875 0 0 Z " fill="#00000" transform="translate(57.5625,65.1875)"/>
<path d="M0 0 C2.99332739 0.9977758 3.94766315 1.7522025 6 4 C7.32 2.68 8.64 1.36 10 0 C11 1 11 1 11.09765625 3.28515625 C11.08605469 4.20167969 11.07445312 5.11820312 11.0625 6.0625 C11.05347656 6.98160156 11.04445312 7.90070313 11.03515625 8.84765625 C11.02355469 9.55792969 11.01195312 10.26820313 11 11 C10.01 11 9.02 11 8 11 C7.67 10.01 7.34 9.02 7 8 C4.98491642 7.26676204 4.98491642 7.26676204 3 7 C2.67 8.32 2.34 9.64 2 11 C1.34 11 0.68 11 0 11 C0 7.37 0 3.74 0 0 Z " fill="#00000" transform="translate(216,119)"/>
<path d="M0 0 C3.0625 0.1875 3.0625 0.1875 5.0625 2.1875 C5.2578125 4.3515625 5.2578125 4.3515625 5.1875 6.8125 C5.16945312 7.62976563 5.15140625 8.44703125 5.1328125 9.2890625 C5.09800781 10.22878906 5.09800781 10.22878906 5.0625 11.1875 C4.0725 10.8575 3.0825 10.5275 2.0625 10.1875 C2.0625 9.1975 2.0625 8.2075 2.0625 7.1875 C1.0725 7.1875 0.0825 7.1875 -0.9375 7.1875 C-0.9375 8.5075 -0.9375 9.8275 -0.9375 11.1875 C-1.9275 11.1875 -2.9175 11.1875 -3.9375 11.1875 C-3.96438151 9.54175434 -3.98384123 7.89588587 -4 6.25 C-4.01160156 5.33347656 -4.02320313 4.41695313 -4.03515625 3.47265625 C-3.88736181 0.01426638 -3.51148462 0.22413732 0 0 Z M-0.9375 2.1875 C-0.9375 3.1775 -0.9375 4.1675 -0.9375 5.1875 C0.3825 4.8575 1.7025 4.5275 3.0625 4.1875 C2.7325 3.5275 2.4025 2.8675 2.0625 2.1875 C1.0725 2.1875 0.0825 2.1875 -0.9375 2.1875 Z " fill="#00000" transform="translate(178.9375,118.8125)"/>
<path d="M0 0 C4.875 3.75 4.875 3.75 6 6 C6.33 4.02 6.66 2.04 7 0 C7.66 0.33 8.32 0.66 9 1 C9 4.3 9 7.6 9 11 C5 10 5 10 3 7 C2.67 8.32 2.34 9.64 2 11 C1.01 10.67 0.02 10.34 -1 10 C-0.67 6.7 -0.34 3.4 0 0 Z " fill="#00000" transform="translate(354,119)"/>
<path d="M0 0 C0.66 0 1.32 0 2 0 C3.625 2 3.625 2 5 4 C5.45375 3.34 5.9075 2.68 6.375 2 C6.91125 1.34 7.4475 0.68 8 0 C8.66 0 9.32 0 10 0 C10 3.63 10 7.26 10 11 C9.34 11 8.68 11 8 11 C7.67 9.68 7.34 8.36 7 7 C5.68 7 4.36 7 3 7 C2.67 8.32 2.34 9.64 2 11 C1.34 11 0.68 11 0 11 C0 7.37 0 3.74 0 0 Z " fill="#00000" transform="translate(249,119)"/>
<path d="M0 0 C5.4 -0.36 5.4 -0.36 7.875 1.125 C9.50531294 3.84218824 9.33015665 5.89652746 9 9 C7 11 7 11 3.4375 11.1875 C0 11 0 11 -1 10 C-0.91036938 8.30858344 -0.75422324 6.62040398 -0.5625 4.9375 C-0.46066406 4.01839844 -0.35882813 3.09929687 -0.25390625 2.15234375 C-0.17011719 1.44207031 -0.08632812 0.73179688 0 0 Z M2 2 C2 4.31 2 6.62 2 9 C3.32 9 4.64 9 6 9 C6.33 7.35 6.66 5.7 7 4 C4.525 3.01 4.525 3.01 2 2 Z " fill="#00000" transform="translate(161,119)"/>
<path d="M0 0 C1.41441874 2.82883747 1.31900332 4.87376745 1 8 C-0.6875 10 -0.6875 10 -3 11 C-5.625 10.5 -5.625 10.5 -8 9 C-9.4375 6.625 -9.4375 6.625 -10 4 C-9.25 1.75 -9.25 1.75 -8 0 C-5.09660535 -1.45169732 -3.09125158 -0.72348441 0 0 Z M-5 1 C-5.66 1.66 -6.32 2.32 -7 3 C-6.67958603 5.60280568 -6.67958603 5.60280568 -6 8 C-4.68 8 -3.36 8 -2 8 C-1.67 6.35 -1.34 4.7 -1 3 C-2.32 2.34 -3.64 1.68 -5 1 Z " fill="#00000" transform="translate(347,120)"/>
<path d="M0 0 C0 0.66 0 1.32 0 2 C-1.65 2 -3.3 2 -5 2 C-5.33 3.65 -5.66 5.3 -6 7 C-4.68 7.33 -3.36 7.66 -2 8 C-2 7.34 -2 6.68 -2 6 C-2.99 6 -3.98 6 -5 6 C-5 5.34 -5 4.68 -5 4 C-3.35 4 -1.7 4 0 4 C0 5.98 0 7.96 0 10 C-1.6875 10.6875 -1.6875 10.6875 -4 11 C-6.85345472 9.73917117 -8.55789785 8.91367777 -9.9375 6.0625 C-10.01581949 3.47795669 -9.40808547 2.14918308 -8 0 C-5.13822943 -1.43088528 -3.06624227 -0.59991697 0 0 Z " fill="#00000" transform="translate(274,120)"/>
<path d="M0 0 C0.66 0 1.32 0 2 0 C3.38232443 1.62626404 4.71937515 3.2925002 6 5 C6.33 3.35 6.66 1.7 7 0 C7.66 0 8.32 0 9 0 C9 3.63 9 7.26 9 11 C8.01 11 7.02 11 6 11 C4.3125 9 4.3125 9 3 7 C2.67 8.32 2.34 9.64 2 11 C1.34 11 0.68 11 0 11 C0 7.37 0 3.74 0 0 Z " fill="#00000" transform="translate(288,119)"/>
<path d="M0 0 C3 1 3 1 4.6875 4.375 C6 8 6 8 6 11 C3.69 10.34 1.38 9.68 -1 9 C-1 9.66 -1 10.32 -1 11 C-1.99 10.67 -2.98 10.34 -4 10 C-2.68 6.7 -1.36 3.4 0 0 Z M1 5 C0.67 5.66 0.34 6.32 0 7 C0.66 7 1.32 7 2 7 C1.67 6.34 1.34 5.68 1 5 Z " fill="#00000" transform="translate(205,119)"/>
<path d="M0 0 C0.66 0 1.32 0 2 0 C2.67119549 1.4562545 3.33681807 2.91507867 4 4.375 C4.556875 5.59316406 4.556875 5.59316406 5.125 6.8359375 C6 9 6 9 6 11 C5.01 11 4.02 11 3 11 C3 10.34 3 9.68 3 9 C1.35 9 -0.3 9 -2 9 C-2 9.66 -2 10.32 -2 11 C-2.66 11 -3.32 11 -4 11 C-3.39301257 6.87248551 -1.96189209 3.6678852 0 0 Z M0 4 C0 4.99 0 5.98 0 7 C0.66 6.67 1.32 6.34 2 6 C1.34 5.34 0.68 4.68 0 4 Z " fill="#00000" transform="translate(306,119)"/>
<path d="M0 0 C2.31 0 4.62 0 7 0 C7 0.66 7 1.32 7 2 C5.35 2 3.7 2 2 2 C2 2.99 2 3.98 2 5 C3.32 5 4.64 5 6 5 C6 5.66 6 6.32 6 7 C4.68 7 3.36 7 2 7 C2 7.66 2 8.32 2 9 C3.65 9 5.3 9 7 9 C7 9.66 7 10.32 7 11 C4.69 11 2.38 11 0 11 C-1.26026798 8.47946405 -0.91874445 7.1457902 -0.5625 4.375 C-0.46066406 3.55773437 -0.35882813 2.74046875 -0.25390625 1.8984375 C-0.17011719 1.27195312 -0.08632812 0.64546875 0 0 Z " fill="#00000" transform="translate(190,119)"/>
<path d="M0 0 C2.97 0 5.94 0 9 0 C9 0.66 9 1.32 9 2 C8.01 2.66 7.02 3.32 6 4 C5.7497843 7.08365871 5.7497843 7.08365871 6 10 C5.01 10.33 4.02 10.66 3 11 C3 8.03 3 5.06 3 2 C2.01 2 1.02 2 0 2 C0 1.34 0 0.68 0 0 Z " fill="#00000" transform="translate(316,119)"/>
<path d="M0 0 C0.66 0 1.32 0 2 0 C2 3.63 2 7.26 2 11 C1.01 10.67 0.02 10.34 -1 10 C-0.67 6.7 -0.34 3.4 0 0 Z " fill="#00000" transform="translate(280,119)"/>
<path d="M0 0 C0.66 0.33 1.32 0.66 2 1 C2 4.3 2 7.6 2 11 C1.01 10.67 0.02 10.34 -1 10 C-0.67 6.7 -0.34 3.4 0 0 Z " fill="#00000" transform="translate(241,119)"/>
<path d="M0 0 C0.66 0 1.32 0 2 0 C2 3.63 2 7.26 2 11 C1.34 11 0.68 11 0 11 C0 7.37 0 3.74 0 0 Z " fill="#00000" transform="translate(330,119)"/>
</svg>
